<?xml version="1.0" encoding="iso-8859-1"?>
<!-- Generator: Adobe Illustrator 19.0.0, SVG Export Plug-In . SVG Version: 6.00 Build 0)  -->
<svg xmlns="http://www.w3.org/2000/svg" xmlns:xlink="http://www.w3.org/1999/xlink" version="1.1" id="Layer_1" x="0px" y="0px" viewBox="0 0 512.001 512.001" style="enable-background:new 0 0 512.001 512.001;" xml:space="preserve" width="512px" height="512px">
<g>
	<g>
		<path d="M330.473,126.308c-0.625-10.567-5.338-20.256-13.273-27.278c-7.271-6.441-16.629-9.988-26.349-9.988    c-11.351,0-22.187,4.852-29.731,13.314c-7.064,7.923-10.606,18.112-9.982,28.69c0.624,10.567,5.338,20.258,13.273,27.284    c7.269,6.438,16.626,9.984,26.345,9.984c11.353,0,22.19-4.854,29.733-13.315C327.552,147.075,331.096,136.885,330.473,126.308z     M308.789,144.568c-4.571,5.129-11.145,8.072-18.033,8.072c-5.888,0-11.553-2.147-15.956-6.045    c-4.792-4.243-7.64-10.095-8.016-16.475c-0.377-6.391,1.766-12.546,6.035-17.337c4.571-5.128,11.143-8.07,18.031-8.07    c5.888,0,11.556,2.147,15.959,6.049c4.792,4.242,7.638,10.091,8.016,16.469C315.203,133.62,313.059,139.777,308.789,144.568z" fill="#FFFFFF"/>
	</g>
</g>
<g>
	<g>
		<path d="M215.612,125.019c-1.227-20.907-18.622-37.285-39.602-37.285c-0.794,0-1.6,0.023-2.394,0.071    c-21.874,1.299-38.625,20.104-37.341,41.918c1.231,20.905,18.622,37.282,39.598,37.282c0.796,0,1.604-0.024,2.398-0.071    C200.141,165.638,216.892,146.835,215.612,125.019z M177.341,151.289c-13.323,0.781-24.647-9.369-25.418-22.485    c-0.776-13.192,9.373-24.566,22.624-25.353c0.49-0.028,0.98-0.043,1.463-0.043c12.691,0,23.215,9.896,23.955,22.53    C200.739,139.131,190.592,150.503,177.341,151.289z" fill="#FFFFFF"/>
	</g>
</g>
<g>
	<g>
		<path d="M133.374,205.045c-0.623-10.568-5.336-20.26-13.271-27.286c-7.271-6.438-16.629-9.984-26.345-9.984    c-11.355,0-22.192,4.855-29.737,13.317c-7.061,7.924-10.608,18.112-9.982,28.69c0.625,10.568,5.336,20.256,13.271,27.28    c7.271,6.439,16.629,9.985,26.347,9.985c11.353,0,22.19-4.854,29.733-13.315C130.454,225.809,133.998,215.622,133.374,205.045z     M111.69,223.303c-4.571,5.128-11.143,8.071-18.033,8.071c-5.886,0-11.553-2.147-15.957-6.046    c-4.792-4.242-7.639-10.092-8.016-16.471c-0.377-6.389,1.767-12.545,6.036-17.336c4.574-5.13,11.147-8.074,18.037-8.074    c5.886,0,11.551,2.147,15.953,6.044c4.794,4.245,7.641,10.097,8.019,16.477C118.104,212.356,115.962,218.512,111.69,223.303z" fill="#FFFFFF"/>
	</g>
</g>
<g>
	<g>
		<path d="M131.93,319.56c-1.226-20.908-18.622-37.285-39.604-37.285c-0.792,0-1.598,0.024-2.392,0.071    c-21.87,1.301-38.618,20.105-37.338,41.916c1.225,20.908,18.618,37.286,39.597,37.286c0.796,0,1.602-0.024,2.398-0.071    C116.461,360.174,133.21,341.37,131.93,319.56z M93.662,345.832c-13.331,0.797-24.651-9.37-25.418-22.487    c-0.775-13.192,9.374-24.566,22.62-25.355c0.49-0.028,0.98-0.043,1.463-0.043c12.693,0,23.217,9.896,23.957,22.529    C117.057,333.668,106.91,345.042,93.662,345.832z" fill="#FFFFFF"/>
	</g>
</g>
<g>
	<g>
		<path d="M212.127,401.428c-0.625-10.567-5.338-20.256-13.271-27.281c-7.271-6.439-16.626-9.985-26.347-9.985    c-11.353,0-22.19,4.854-29.733,13.316c-7.064,7.923-10.608,18.112-9.984,28.689c0.625,10.567,5.338,20.257,13.271,27.282    c7.271,6.44,16.629,9.987,26.347,9.987c11.355,0,22.192-4.855,29.737-13.318C209.209,422.193,212.753,412.004,212.127,401.428z     M190.447,419.689c-4.571,5.13-11.145,8.074-18.035,8.074c-5.886,0-11.553-2.148-15.956-6.047    c-4.792-4.244-7.639-10.095-8.016-16.474c-0.378-6.388,1.765-12.545,6.036-17.336c4.571-5.129,11.145-8.072,18.033-8.072    c5.888,0,11.553,2.146,15.956,6.045c4.794,4.244,7.641,10.094,8.019,16.473C196.86,408.74,194.716,414.898,190.447,419.689z" fill="#FFFFFF"/>
	</g>
</g>
<g>
	<g>
		<path d="M326.99,402.753c-1.226-20.908-18.624-37.286-39.608-37.286c-0.792,0-1.596,0.023-2.39,0.071    c-21.87,1.303-38.621,20.108-37.341,41.919c1.227,20.907,18.622,37.285,39.602,37.285c0.794,0,1.6-0.023,2.394-0.071    C311.519,443.372,328.27,424.567,326.99,402.753z M288.719,429.026c-13.323,0.759-24.651-9.37-25.42-22.487    c-0.775-13.192,9.376-24.567,22.624-25.356c0.488-0.029,0.976-0.044,1.46-0.044c12.696,0,23.221,9.897,23.962,22.531    C312.119,416.864,301.968,428.238,288.719,429.026z" fill="#FFFFFF"/>
	</g>
</g>
<g>
	<g>
		<path d="M409.227,322.693c-0.624-10.569-5.338-20.256-13.271-27.28c-7.271-6.439-16.631-9.986-26.349-9.986    c-11.353,0-22.19,4.854-29.731,13.315c-7.064,7.924-10.61,18.112-9.986,28.69c0.625,10.568,5.338,20.259,13.273,27.284    c7.271,6.439,16.629,9.985,26.347,9.985c11.353,0,22.19-4.854,29.735-13.316C406.306,343.462,409.853,333.271,409.227,322.693z     M387.546,340.956c-4.574,5.129-11.147,8.072-18.035,8.072c-5.888,0-11.556-2.147-15.958-6.046    c-4.792-4.244-7.638-10.095-8.016-16.474c-0.377-6.389,1.767-12.546,6.038-17.338c4.571-5.128,11.143-8.071,18.031-8.071    c5.888,0,11.556,2.148,15.959,6.047c4.792,4.242,7.637,10.092,8.014,16.471C393.96,330.008,391.815,336.166,387.546,340.956z" fill="#FFFFFF"/>
	</g>
</g>
<g>
	<g>
		<path d="M506.687,20.188c-3.428-3.427-8.113-5.314-13.19-5.314c-5.775,0-11.557,2.466-15.859,6.768l-38.839,38.834    c0,0-0.004,0.003-0.004,0.004l-0.004,0.004l-36.366,36.36c-2.967,2.238-5.92,4.496-8.869,6.762    c-2.672-4.887-6.194-9.318-10.496-13.006C338.874,52.723,282.282,33.004,223.74,35.095    c-58.872,2.096-114.207,26.09-155.817,67.561C24.123,146.314,0,204.435,0,266.308c0,61.776,24.057,119.777,67.741,163.318    c45.153,45.003,104.471,67.502,163.816,67.502c59.431,0,118.886-22.566,164.156-67.687c17.138-17.083,31.42-36.613,42.449-58.047    c1.981-3.848,0.467-8.573-3.381-10.555c-3.845-1.977-8.573-0.465-10.556,3.382c-10.282,19.981-23.596,38.189-39.578,54.118    c-84.369,84.094-221.57,84.177-305.841,0.185c-40.712-40.579-63.133-94.637-63.133-152.217c0-57.677,22.486-111.854,63.317-152.55    c38.798-38.671,90.405-61.044,145.308-62.999c54.609-1.933,107.37,16.432,148.562,51.74c3.51,3.01,6.263,6.754,8.111,10.905    c-46.99,37.077-91.527,77.72-132.721,121.124c-0.276,0.061-0.551,0.112-0.822,0.196c-13.464,4.17-25.424,14.458-36.569,31.449    c-9.061,13.811-16.494,30.352-23.073,44.994c-5.041,11.213-9.802,21.804-14.459,29.363c-2.323,3.749-1.782,8.535,1.321,11.645    c1.818,1.816,4.214,2.755,6.64,2.755c1.713,0,3.439-0.468,4.989-1.425c7.584-4.673,18.192-9.439,29.426-14.487    c4.649-2.088,9.455-4.246,14.365-6.547c3.92-1.836,5.608-6.501,3.773-10.421c-1.837-3.921-6.502-5.61-10.421-3.773    c-4.8,2.247-9.549,4.38-14.143,6.446c-4.529,2.034-8.961,4.026-13.184,6.004c1.978-4.217,3.967-8.647,6.006-13.181    c6.321-14.063,13.483-30.002,21.863-42.774c7.644-11.657,15.38-19.307,23.525-23.252l1.381,1.381l-6.516,6.517    c-3.062,3.061-3.062,8.023-0.002,11.083c1.531,1.531,3.537,2.296,5.543,2.296c2.004,0,4.01-0.765,5.541-2.295l6.518-6.519    l2.898,2.897l-14.216,14.213c-3.062,3.06-3.062,8.022,0,11.082c1.531,1.531,3.535,2.296,5.541,2.296    c2.006,0,4.01-0.765,5.541-2.295l14.218-14.215l1.381,1.382c-3.942,8.138-11.594,15.871-23.253,23.518    c-3.621,2.373-4.631,7.231-2.257,10.85c2.373,3.621,7.233,4.632,10.851,2.256c16.994-11.143,27.283-23.102,31.454-36.553    c0.086-0.28,0.141-0.562,0.2-0.844c15.076-14.304,29.859-29.055,44.267-44.151c0.287,0.309,0.567,0.625,0.869,0.925    c13.963,13.917,36.696,13.908,50.678-0.025l6.308-6.288c8.545-8.518,21.388-11.341,32.719-7.188    c11.316,4.143,19.249,14.559,20.21,26.532c2.194,27.341-0.76,54.445-8.775,80.562c-1.27,4.137,1.055,8.52,5.194,9.791    c4.13,1.264,8.52-1.054,9.79-5.193c8.6-28.017,11.768-57.091,9.415-86.414c-1.449-18.055-13.4-33.754-30.443-39.995    c-17.025-6.24-36.329-1.999-49.174,10.804l-6.308,6.289c-7.873,7.85-20.682,7.864-28.549,0.024    c-0.406-0.405-0.786-0.83-1.151-1.263c11.171-12.001,22.1-24.201,32.726-36.566c2.822-3.282,2.449-8.23-0.835-11.051    c-3.282-2.822-8.231-2.448-11.051,0.835c-2.845,3.311-5.725,6.605-8.612,9.892l-18.832-18.83    c21.437-18.822,43.513-36.893,66.122-54.127l6.849,6.847c-8.22,10.782-16.694,21.523-25.245,32.001    c-2.737,3.354-2.237,8.29,1.116,11.027c3.353,2.737,8.29,2.235,11.027-1.116c9.993-12.245,19.877-24.843,29.39-37.452    l75.218-75.206c3.896-3.896,6.276-8.936,6.7-14.19C512.391,29.393,510.479,23.979,506.687,20.188z M283.497,265.357l-22.02-22.017    c2.923-3.066,5.863-6.115,8.818-9.151l22.347,22.343C289.602,259.488,286.56,262.437,283.497,265.357z M303.805,245.532    l-22.5-22.498c2.704-2.708,5.421-5.406,8.151-8.091l22.433,22.431C309.205,240.103,306.515,242.828,303.805,245.532z     M322.811,226.13l-22.106-22.105c2.764-2.649,5.541-5.287,8.331-7.912l21.694,21.689    C328.103,220.59,325.463,223.366,322.811,226.13z M349.153,197.819c-2.563,2.845-5.153,5.674-7.745,8.497l-20.888-20.881    c2.824-2.591,5.663-5.168,8.511-7.733L349.153,197.819z M424.103,108.188l-5.428-5.426l25.662-25.659l5.428,5.426L424.103,108.188    z M496.311,33.779c-0.122,1.528-0.912,3.121-2.161,4.372l-33.302,33.298l-5.428-5.427l33.3-33.295    c1.366-1.365,3.151-2.179,4.777-2.179c0.631,0,1.508,0.125,2.109,0.725C496.338,32.005,496.362,33.157,496.311,33.779z" fill="#FFFFFF"/>
	</g>
</g>
<g>
</g>
<g>
</g>
<g>
</g>
<g>
</g>
<g>
</g>
<g>
</g>
<g>
</g>
<g>
</g>
<g>
</g>
<g>
</g>
<g>
</g>
<g>
</g>
<g>
</g>
<g>
</g>
<g>
</g>
</svg>
