<?xml version="1.0" encoding="iso-8859-1"?>
<!-- Generator: Adobe Illustrator 19.0.0, SVG Export Plug-In . SVG Version: 6.00 Build 0)  -->
<svg xmlns="http://www.w3.org/2000/svg" xmlns:xlink="http://www.w3.org/1999/xlink" version="1.1" id="Layer_1" x="0px" y="0px" viewBox="0 0 512.007 512.007" style="enable-background:new 0 0 512.007 512.007;" xml:space="preserve" width="512px" height="512px">
<g>
	<g>
		<path d="M135.975,347.442c-1.673-1.51-4.625-3.311-9.122-3.311H82.3v-20.779h38.298c3.652,0,6.997-1.348,9.446-3.797    c2.372-2.347,3.678-5.478,3.678-8.798c0-3.447-1.246-6.528-4.002-9.25c-2.423-2.202-5.572-3.354-9.122-3.354H82.027l-0.529-17.374    h43.648c3.575,0,6.878-1.348,9.327-3.797c2.372-2.347,3.678-5.504,3.678-8.798c0-3.396-1.297-6.579-4.002-9.25    c-2.424-2.202-5.547-3.354-9.003-3.354H77.649c-6.596,0-12.177,2.423-16.179,7.023c-3.371,3.925-5.146,8.977-5.146,14.575v70.673    c0,5.547,1.724,10.402,5.171,14.473c2.748,3.174,7.799,6.972,16.154,6.972h49.203c4.779,0,7.825-2.099,9.353-3.678    c2.449-2.347,3.772-5.521,3.772-8.926C139.977,353.287,138.68,350.113,135.975,347.442z" fill="#091608"/>
	</g>
</g>
<g>
	<g>
		<path d="M241.114,324.223c-1.877-3.012-4.779-5.018-8.354-5.811c-1.024-0.222-2.022-0.324-3.021-0.324l-4.429,0.529l-2.074,1.178    c-3.354,1.929-5.598,5.171-6.246,8.875c-1.476,6.75-3.977,11.401-7.552,14.097c-3.174,2.372-7.629,3.576-13.252,3.576    c-7.501,0-12.979-2.347-17.271-7.398c-4.975-5.854-7.501-14.754-7.501-26.479c0-11.426,2.551-20.275,7.475-26.197    c4.497-5.222,10.001-7.671,17.297-7.671c5.726,0,10.172,1.178,13.602,3.575c3.524,2.475,5.726,6.221,6.724,11.273    c0.896,5.103,3.678,7.876,5.572,9.122c2.125,1.502,4.599,2.304,7.151,2.304l2.876-0.324c3.251-0.725,6.101-2.603,8.098-5.453    c1.929-2.876,2.671-6.221,2.125-10.027c-1.929-10.3-6.528-18.722-13.798-25.096c-8.226-7.023-19.123-10.573-32.35-10.573    c-15.147,0-27.571,5.675-36.898,16.828c-9.199,10.803-13.85,25.028-13.85,42.249c0,17.604,4.676,31.923,13.824,42.479    c9.301,11.025,21.726,16.597,36.924,16.597c13.278,0,24.201-3.849,32.452-11.426c6.903-6.246,11.648-14.729,14.174-25.25    C243.938,329.846,242.437,326.194,241.114,324.223z" fill="#091608"/>
	</g>
</g>
<g>
	<g>
		<path d="M345.946,272.221c-9.6-12.527-23.1-18.85-40.201-18.85c-17.203,0.009-30.78,6.366-40.397,18.961    c-7.902,10.65-11.904,24.149-11.904,40.124c0,15.974,4.002,29.448,11.947,40.021c9.549,12.646,23.125,19.046,40.354,19.046    c17.101,0,30.626-6.4,40.175-19.004c8.149-10.598,12.254-24.073,12.254-40.073C358.174,296.472,354.078,282.947,345.946,272.221z     M325.577,337.253c-4.548,6.272-10.871,9.199-19.823,9.199c-9.028,0-15.326-2.927-19.797-9.148    c-4.326-6.05-6.528-14.396-6.528-24.849c0-10.522,2.202-18.876,6.554-24.875c4.446-6.221,10.752-9.148,19.772-9.148    c8.951,0,15.249,2.927,19.823,9.225c4.395,6.024,6.622,14.379,6.622,24.798C332.199,322.806,329.946,331.178,325.577,337.253z" fill="#091608"/>
	</g>
</g>
<g>
	<g>
		<path d="M500.681,8.387c-1.562-4.25-5.291-7.373-9.839-8.201l-2.159-0.179c-3.772,0-7.322,1.621-9.754,4.446    c-8.286,9.677-31.223,13.722-53.478,17.647c-31.403,5.555-70.613,12.979-93.961,40.226c-12.51-27.896-38.528-50.458-61.423-61.124    c-4.122-1.929-8.951-1.51-12.698,1.067c-3.678,2.577-5.828,6.955-5.47,11.52c0.623,8.004-9.856,20.855-19.985,33.28    c-12.578,15.403-27.605,34.219-31.292,55.543C89.468,104.865,0.005,195.506,0.005,307.207c0,113.109,91.691,204.8,204.8,204.8    s204.8-91.691,204.8-204.8c0-38.801-10.991-74.948-29.73-105.873c8.499,2.21,17.468,3.447,26.871,3.447    c35.934,0,63.565-13.397,82.099-39.876C521.818,117.861,513.609,43.937,500.681,8.387z M251.746,63.239    c8.474-10.385,16.674-20.42,21.47-30.805c18.534,12.723,35.78,32.879,39.543,54.221c2.466,13.995-1.399,27.443-10.914,40.192    c-5.709-3.081-11.58-5.914-17.596-8.448c2.193-10.701,3.601-22.622,1.894-37.06c-0.828-7.023-7.194-12.041-14.216-11.204    c-7.006,0.862-12.032,7.219-11.204,14.217c1.135,9.591,0.418,17.929-0.956,25.745c-10.692-2.978-21.666-5.257-32.99-6.468    C229.824,91.442,239.109,78.744,251.746,63.239z M384.005,307.207c0,98.807-80.393,179.2-179.2,179.2s-179.2-80.393-179.2-179.2    s80.393-179.2,179.2-179.2S384.005,208.4,384.005,307.207z M467.887,150.237c-13.449,19.2-34.014,28.954-61.141,28.954    c-19.328,0-36.463-5.897-49.135-16.776c9.66-7.296,20.659-13.278,32.776-17.749l2.697-1.05    c22.059-7.697,42.684-7.501,44.297-7.125l2.748,0.299c6.025,0,11.162-4.096,12.501-10.001c1.263-5.7-1.502-11.375-6.409-14.046    c12.015-10.846,21.513-23.45,28.373-37.649c1.476-3.072,1.673-6.554,0.546-9.779c-1.126-3.226-3.447-5.828-6.528-7.296    c-6.11-2.901-14.123-0.154-17.084,5.948c-10.197,21.129-27.221,37.299-51.797,49.126c1.51-10.675-0.154-21.274-4.975-30.925    c-3.046-6.153-11.187-8.678-17.135-5.751c-3.072,1.527-5.359,4.147-6.451,7.398c-1.101,3.277-0.836,6.75,0.691,9.779    c7.697,15.428-2.022,29.5-5.786,34.074c-8.422,4.198-16.358,9.097-23.697,14.626c-4.361-9.498-6.025-19.977-4.813-30.797    c5.41-48.802,47.616-56.252,92.339-64.154c19.098-3.379,37.325-6.579,51.575-13.602    C490.082,70.433,489.383,119.534,467.887,150.237z" fill="#091608"/>
	</g>
</g>
<g>
</g>
<g>
</g>
<g>
</g>
<g>
</g>
<g>
</g>
<g>
</g>
<g>
</g>
<g>
</g>
<g>
</g>
<g>
</g>
<g>
</g>
<g>
</g>
<g>
</g>
<g>
</g>
<g>
</g>
</svg>
