<?xml version="1.0" encoding="iso-8859-1"?>
<!-- Generator: Adobe Illustrator 19.0.0, SVG Export Plug-In . SVG Version: 6.00 Build 0)  -->
<svg xmlns="http://www.w3.org/2000/svg" xmlns:xlink="http://www.w3.org/1999/xlink" version="1.1" id="Capa_1" x="0px" y="0px" viewBox="0 0 60.066 60.066" style="enable-background:new 0 0 60.066 60.066;" xml:space="preserve" width="512px" height="512px">
<g>
	<path d="M55.263,35.668L55.263,35.668l-3.327-3.791c-0.262-0.297-0.677-0.413-1.053-0.294c-0.378,0.119-0.649,0.45-0.693,0.845   c-0.078,0.71-0.179,1.394-0.292,2.038c-0.569-2.506-1.532-5.002-2.872-7.474V9.001c0-0.553-0.447-1-1-1   c-14.628,0-21.169-7.565-21.231-7.641c-0.189-0.227-0.442-0.378-0.77-0.358c-0.295,0-0.575,0.131-0.766,0.356   c-0.064,0.077-6.605,7.643-21.233,7.643c-0.553,0-1,0.447-1,1v19.085c0,10.433,4.69,20.348,12.546,26.521   c3.167,2.489,6.589,4.29,10.17,5.353c0.093,0.027,0.188,0.041,0.284,0.041s0.191-0.014,0.284-0.041   c3.293-0.977,6.448-2.586,9.398-4.772c2.736,3.074,6.653,4.853,10.769,4.879c0.03,0,0.061,0,0.092,0   c4.116,0,8.049-1.749,10.803-4.808C60.304,49.78,60.257,41.358,55.263,35.668z M24.026,57.956   c-1.804-0.558-3.564-1.326-5.269-2.283c0.163-0.178,0.269-0.411,0.269-0.672c0-0.552-0.448-1-1-1c-0.435,0-0.796,0.282-0.933,0.67   c-0.775-0.504-1.537-1.049-2.284-1.636c-0.042-0.033-0.081-0.07-0.123-0.103c0.107,0.039,0.22,0.069,0.341,0.069   c0.552,0,1-0.448,1-1c0-0.552-0.448-1-1-1s-1,0.448-1,1c0,0.194,0.07,0.365,0.166,0.518c-1.939-1.613-3.661-3.472-5.136-5.525   c0.538-0.017,0.97-0.452,0.97-0.994c0-0.552-0.448-1-1-1c-0.409,0-0.759,0.247-0.914,0.6c-0.437-0.684-0.853-1.383-1.238-2.102   c0.088-0.149,0.152-0.313,0.152-0.498c0-0.516-0.396-0.925-0.897-0.979c-1.085-2.307-1.893-4.762-2.416-7.3   c0.191-0.182,0.313-0.436,0.313-0.721c0-0.414-0.251-0.768-0.609-0.92c-0.206-1.344-0.327-2.709-0.366-4.085   c0.54-0.014,0.975-0.452,0.975-0.995c0-0.552-0.448-1-1-1v-4c0.552,0,1-0.448,1-1c0-0.552-0.448-1-1-1v-4c0.552,0,1-0.448,1-1   c0-0.552-0.448-1-1-1v-4c0.552,0,1-0.448,1-1c0-0.021-0.01-0.038-0.012-0.058c1.46-0.066,2.837-0.2,4.132-0.393   c-0.071,0.137-0.12,0.286-0.12,0.451c0,0.552,0.448,1,1,1s1-0.448,1-1c0-0.281-0.118-0.533-0.304-0.715   c2.867-0.553,5.294-1.372,7.306-2.278c0.004,0.549,0.449,0.993,0.998,0.993c0.552,0,1-0.448,1-1c0-0.318-0.158-0.588-0.388-0.772   c0.808-0.425,1.529-0.854,2.172-1.272c0.072,0.016,0.14,0.044,0.216,0.044c0.506,0,0.907-0.382,0.974-0.87   c0.886-0.654,1.567-1.246,2.026-1.687c2.135,2.049,8.758,7.273,21,7.546v14.121c-0.14-0.071-0.296-0.11-0.456-0.11   c-0.001,0-0.001,0-0.001,0c-0.288,0-0.562,0.124-0.752,0.34l-3.249,3.701c-3.337,3.801-5.183,8.613-5.293,13.493   c-0.203-0.46-0.397-0.955-0.583-1.461c-0.233-0.633-0.45-1.289-0.628-1.972c-0.101-0.387-0.421-0.676-0.816-0.736   c-0.099-0.015-0.198-0.015-0.294-0.001c-0.287,0.041-0.546,0.205-0.705,0.458c-0.02,0.031-0.035,0.064-0.055,0.096   c-0.179,0.291-0.348,0.585-0.504,0.885c-0.056,0.108-0.104,0.218-0.157,0.327c-0.114,0.232-0.225,0.464-0.326,0.7   c-0.048,0.113-0.089,0.227-0.134,0.34c-0.096,0.242-0.187,0.484-0.269,0.729c-0.034,0.103-0.065,0.206-0.097,0.309   c-0.082,0.265-0.158,0.532-0.224,0.801c-0.021,0.085-0.041,0.17-0.06,0.255c-0.068,0.298-0.126,0.596-0.176,0.897   c-0.01,0.059-0.02,0.117-0.028,0.176c-0.051,0.341-0.091,0.683-0.118,1.026c-0.002,0.021-0.004,0.042-0.006,0.063   c-0.141,1.885,0.081,3.788,0.666,5.596c0.023,0.071,0.05,0.14,0.073,0.211c0.09,0.265,0.185,0.528,0.291,0.788   c0.054,0.134,0.113,0.265,0.171,0.397c0.083,0.188,0.168,0.375,0.259,0.56c0.086,0.176,0.178,0.35,0.272,0.523   c0.071,0.13,0.144,0.26,0.219,0.388c0.122,0.209,0.249,0.415,0.381,0.618c0.022,0.034,0.041,0.069,0.063,0.102   C29.824,55.582,26.981,57.042,24.026,57.956z M53.885,53.921c-2.393,2.658-5.849,4.177-9.396,4.146   c-3.578-0.022-6.984-1.578-9.345-4.268c-0.166-0.19-0.323-0.385-0.476-0.583c-0.003-0.004-0.004-0.01-0.007-0.014   c-0.334-0.431-0.634-0.879-0.904-1.342c-0.007-0.013-0.016-0.025-0.023-0.038c-0.25-0.432-0.467-0.878-0.662-1.331   c-0.027-0.064-0.056-0.128-0.083-0.192c-0.171-0.416-0.314-0.841-0.438-1.27c-0.031-0.107-0.062-0.215-0.09-0.323   c-0.105-0.403-0.189-0.811-0.253-1.222c-0.021-0.133-0.039-0.267-0.055-0.401c-0.05-0.4-0.083-0.802-0.094-1.206   c-0.004-0.137-0.002-0.273-0.002-0.41c0.002-0.41,0.018-0.82,0.06-1.229c0.012-0.116,0.03-0.232,0.045-0.348   c0.056-0.432,0.127-0.862,0.229-1.288c0.018-0.077,0.042-0.152,0.062-0.228c0.116-0.45,0.252-0.896,0.419-1.334   c0.006-0.016,0.011-0.033,0.017-0.049c1.045,2.773,2.375,4.892,2.86,5.624c0.102,0.154,0.18,0.268,0.195,0.29   c0.272,0.388,0.783,0.525,1.216,0.34c0.436-0.19,0.677-0.659,0.579-1.123l-0.038-0.175c-0.322-1.45-0.462-2.925-0.427-4.393   c0.104-4.405,1.778-8.752,4.796-12.191l2.427-2.766c0.042,0.071,0.082,0.145,0.124,0.216c2.584,4.348,3.901,8.765,3.901,13.144   c0,0.484,0.347,0.898,0.823,0.984s0.945-0.183,1.114-0.637c0.042-0.111,0.855-2.327,1.405-5.475l1.894,2.156   C58.086,41.916,58.139,49.195,53.885,53.921z" fill="#091608"/>
	<circle cx="24.026" cy="7.001" r="1" fill="#091608"/>
	<circle cx="6.026" cy="13.001" r="1" fill="#091608"/>
	<circle cx="12.026" cy="13.001" r="1" fill="#091608"/>
	<circle cx="15.026" cy="10.001" r="1" fill="#091608"/>
	<circle cx="18.026" cy="13.001" r="1" fill="#091608"/>
	<circle cx="21.026" cy="10.001" r="1" fill="#091608"/>
	<circle cx="24.026" cy="13.001" r="1" fill="#091608"/>
	<circle cx="6.026" cy="19.001" r="1" fill="#091608"/>
	<circle cx="9.026" cy="16.001" r="1" fill="#091608"/>
	<circle cx="12.026" cy="19.001" r="1" fill="#091608"/>
	<circle cx="15.026" cy="16.001" r="1" fill="#091608"/>
	<circle cx="18.026" cy="19.001" r="1" fill="#091608"/>
	<circle cx="21.026" cy="16.001" r="1" fill="#091608"/>
	<circle cx="24.026" cy="19.001" r="1" fill="#091608"/>
	<circle cx="6.026" cy="25.001" r="1" fill="#091608"/>
	<circle cx="9.026" cy="22.001" r="1" fill="#091608"/>
	<circle cx="12.026" cy="25.001" r="1" fill="#091608"/>
	<circle cx="15.026" cy="22.001" r="1" fill="#091608"/>
	<circle cx="18.026" cy="25.001" r="1" fill="#091608"/>
	<circle cx="21.026" cy="22.001" r="1" fill="#091608"/>
	<circle cx="24.026" cy="25.001" r="1" fill="#091608"/>
	<circle cx="6.026" cy="31.001" r="1" fill="#091608"/>
	<circle cx="9.026" cy="28.001" r="1" fill="#091608"/>
	<circle cx="12.026" cy="31.001" r="1" fill="#091608"/>
	<circle cx="15.026" cy="28.001" r="1" fill="#091608"/>
	<circle cx="18.026" cy="31.001" r="1" fill="#091608"/>
	<circle cx="21.026" cy="28.001" r="1" fill="#091608"/>
	<circle cx="24.026" cy="31.001" r="1" fill="#091608"/>
	<circle cx="6.026" cy="37.001" r="1" fill="#091608"/>
	<circle cx="9.026" cy="34.001" r="1" fill="#091608"/>
	<circle cx="12.026" cy="37.001" r="1" fill="#091608"/>
	<circle cx="15.026" cy="34.001" r="1" fill="#091608"/>
	<circle cx="18.026" cy="37.001" r="1" fill="#091608"/>
	<circle cx="21.026" cy="34.001" r="1" fill="#091608"/>
	<circle cx="24.026" cy="37.001" r="1" fill="#091608"/>
	<circle cx="9.026" cy="40.001" r="1" fill="#091608"/>
	<circle cx="12.026" cy="43.001" r="1" fill="#091608"/>
	<circle cx="15.026" cy="40.001" r="1" fill="#091608"/>
	<circle cx="18.026" cy="43.001" r="1" fill="#091608"/>
	<circle cx="21.026" cy="40.001" r="1" fill="#091608"/>
	<circle cx="24.026" cy="43.001" r="1" fill="#091608"/>
	<circle cx="12.026" cy="49.001" r="1" fill="#091608"/>
	<circle cx="15.026" cy="46.001" r="1" fill="#091608"/>
	<circle cx="18.026" cy="49.001" r="1" fill="#091608"/>
	<circle cx="21.026" cy="46.001" r="1" fill="#091608"/>
	<circle cx="24.026" cy="49.001" r="1" fill="#091608"/>
	<circle cx="21.026" cy="52.001" r="1" fill="#091608"/>
	<circle cx="24.026" cy="55.001" r="1" fill="#091608"/>
</g>
<g>
</g>
<g>
</g>
<g>
</g>
<g>
</g>
<g>
</g>
<g>
</g>
<g>
</g>
<g>
</g>
<g>
</g>
<g>
</g>
<g>
</g>
<g>
</g>
<g>
</g>
<g>
</g>
<g>
</g>
</svg>
