<?xml version="1.0" encoding="iso-8859-1"?>
<!-- Generator: Adobe Illustrator 19.0.0, SVG Export Plug-In . SVG Version: 6.00 Build 0)  -->
<svg xmlns="http://www.w3.org/2000/svg" xmlns:xlink="http://www.w3.org/1999/xlink" version="1.1" id="Layer_1" x="0px" y="0px" viewBox="0 0 511.999 511.999" style="enable-background:new 0 0 511.999 511.999;" xml:space="preserve" width="512px" height="512px">
<g>
	<g>
		<path d="M506.568,156.158L376.692,26.281c-3.524-3.524-8.183-5.446-13.196-5.438c-4.984,0.017-9.657,1.981-13.158,5.529    l-6.14,6.225c-7.669,7.775-17.845,12.906-28.655,14.45l-9.411,1.344c-11.457,1.637-22.393,6.327-31.508,13.416l-27.503-27.501    c-6.941-6.941-16.169-10.763-25.986-10.763H187.01c-3.67,0-7.121-1.429-9.716-4.024c-5.34-5.34-12.439-8.281-19.991-8.281    s-14.651,2.941-19.991,8.281L8.785,148.048c-11.713,11.713-11.713,30.772,0,42.486c2.088,2.088,3.468,4.848,3.885,7.772    l4.5,31.498c1.117,7.819,4.808,15.202,10.394,20.789l28.775,28.775l-4.556,4.556c-16.456,16.456-16.456,43.23,0,59.686    c7.971,7.971,18.57,12.362,29.843,12.362c2.185,0,4.345-0.165,6.465-0.489c-1.967,12.839,1.983,26.418,11.851,36.286    c9.868,9.868,23.446,13.817,36.286,11.851c-0.324,2.12-0.489,4.28-0.489,6.465c0,11.273,4.391,21.871,12.362,29.842    s18.57,12.362,29.843,12.362c2.185,0,4.345-0.165,6.465-0.489c-1.967,12.839,1.983,26.418,11.851,36.286    c8.228,8.228,19.035,12.341,29.843,12.341c9.802,0,19.597-3.396,27.474-10.164c7.828,6.996,17.695,10.498,27.565,10.498    c10.602,0,21.203-4.035,29.273-12.107l0.001-0.001l1.138-1.139c9.621-9.62,13.504-22.836,11.657-35.363    c2.018,0.298,4.054,0.45,6.09,0.45c10.602,0,21.202-4.035,29.272-12.104l1.141-1.141c9.621-9.621,13.504-22.838,11.657-35.364    c2.018,0.298,4.054,0.45,6.09,0.45c10.602,0,21.202-4.035,29.273-12.106l1.139-1.139c9.62-9.62,13.504-22.836,11.657-35.363    c2.018,0.298,4.054,0.45,6.089,0.45c10.601,0,21.203-4.035,29.273-12.107l0.001-0.001l1.138-1.139    c15.552-15.552,16.114-40.496,1.696-56.735l11.595-11.595c12.565-12.565,19.486-29.272,19.486-47.042v-2.36    c0-16.199,6.309-31.43,17.763-42.884C513.809,175.181,513.809,163.399,506.568,156.158z M226.102,484.145    c-6.918,0-13.424-2.694-18.316-7.587c-4.892-4.893-7.587-11.397-7.587-18.317c0-5.938,1.99-11.567,5.645-16.138    c1.099,1.435,2.293,2.82,3.605,4.132l32.495,32.495C237.427,482.237,231.913,484.145,226.102,484.145z M300.024,475.988    l-1.138,1.139c-9.784,9.785-25.707,9.786-35.493,0l-42.418-42.418c-9.785-9.785-9.785-25.708,0-35.493l1.139-1.139    c4.893-4.893,11.32-7.339,17.747-7.339s12.853,2.446,17.746,7.339l42.418,42.418C309.811,450.281,309.811,466.202,300.024,475.988    z M348.186,427.828l-1.14,1.139c0,0,0,0.001-0.001,0.001c-9.785,9.785-25.707,9.785-35.492,0l-42.418-42.418    c-9.785-9.785-9.785-25.708,0-35.493l1.139-1.139c4.893-4.893,11.32-7.339,17.746-7.339c6.426,0,12.854,2.446,17.747,7.339    l42.418,42.418C357.97,402.122,357.97,418.044,348.186,427.828z M396.343,379.671l-1.139,1.139    c-9.785,9.785-25.707,9.785-35.492,0l-42.418-42.418c-4.741-4.74-7.351-11.043-7.351-17.746c0-6.703,2.61-13.005,7.353-17.747    l1.138-1.139c4.893-4.893,11.319-7.339,17.746-7.339c6.426,0,12.854,2.446,17.746,7.339l42.418,42.419    C406.128,353.964,406.128,369.885,396.343,379.671z M444.5,331.513l-1.138,1.139c-9.784,9.784-25.707,9.785-35.493,0    l-42.418-42.419c-9.785-9.785-9.785-25.707,0-35.492l1.139-1.139c4.893-4.893,11.32-7.339,17.747-7.339    c6.427,0,12.853,2.446,17.746,7.339l42.418,42.418C454.286,305.805,454.286,321.727,444.5,331.513z M495.103,170.831    c-13.633,14.666-22.599,33.03-22.599,53.054v3.783c0,13.321-5.292,26.096-14.711,35.515l-11.537,11.537l-32.646-32.646    c-16.167-16.167-42.379-16.167-58.547,0l-1.139,1.139c-9.621,9.62-13.504,22.836-11.657,35.363    c-12.526-1.847-25.742,2.036-35.365,11.657l-0.639,0.639c-7.342,7.349-11.993,17.08-12.561,27.453    c-0.157,2.847-0.023,5.659,0.379,8.404c-12.519-1.838-25.722,2.047-35.336,11.661l-1.139,1.139    c-9.621,9.621-13.504,22.837-11.657,35.364c-12.526-1.848-25.742,2.035-35.364,11.657l-1.139,1.139    c-10.588,10.589-14.231,25.534-10.927,39.12c-0.817,0.389-1.587,0.913-2.263,1.589c-11.204,11.204-30.201,9.979-39.701-3.674    c-2.089-3.003-3.51-6.45-4.126-10.056c-1.465-8.582,1.233-16.938,7.196-22.9l44.719-44.719c3.242-3.242,3.182-8.536-0.18-11.701    c-3.249-3.059-8.433-2.739-11.589,0.417l-44.476,44.477c-10.229,10.228-26.953,10.097-37.015-0.392    c-9.5-9.904-9.233-25.66-0.002-35.814l0.391-0.43l44.714-44.713c3.183-3.183,3.183-8.344,0-11.526    c-3.182-3.184-8.343-3.183-11.526,0l-44.728,44.728c-6.009,6.001-14.444,8.691-23.092,7.15c-3.542-0.631-6.928-2.037-9.876-4.099    c-7.188-5.03-11.24-12.892-11.24-21.377c0-6.918,2.694-13.424,7.587-18.316l74.823-74.823c3.143-3.143,3.154-8.237,0.024-11.392    c-0.038-0.038-0.076-0.077-0.115-0.115c-3.147-3.172-8.276-3.18-11.435-0.021l-58.741,58.741l-28.775-28.775    c-3.108-3.108-5.162-7.217-5.784-11.568l-4.5-31.498c-0.934-6.536-4.136-12.439-8.704-17.206    c-5.149-5.373-5.081-13.934,0.208-19.221L148.567,31.318c2.187-2.187,5.077-3.622,8.167-3.765c3.367-0.155,6.56,1.067,8.946,3.406    c5.582,5.471,12.844,8.885,20.66,8.885c11.307,0,25.792,0,34.802,0c5.423,0,10.619,2.154,14.453,5.989l118.484,118.484    c10.246,10.246,10.518,27.287,0.1,37.358c-10.123,9.786-26.322,9.683-36.317-0.311l-80.773-80.773    c-6.069-6.069-15.907-6.069-21.976,0l-61.52,61.52c-3.152,3.152-3.152,8.261,0,11.411l0.115,0.115    c3.152,3.152,8.261,3.152,11.411,0l60.981-60.981l79.642,79.643c16.52,16.52,44.049,17.022,60.467,0.401    c8.049-8.148,12.386-18.997,12.164-30.494c-0.215-11.135-5.039-21.688-12.915-29.562l-79.193-79.193    c6.541-4.677,14.188-7.781,22.17-8.921l9.411-1.344c14.405-2.058,27.738-8.782,37.957-19.141l6.139-6.224    c0.549-0.556,1.178-0.675,1.608-0.676c0.456-0.001,1.062,0.113,1.613,0.664L495.04,167.686c0.549,0.55,0.665,1.177,0.665,1.605    C495.707,169.703,495.599,170.297,495.103,170.831z" fill="#091608"/>
	</g>
</g>
<g>
</g>
<g>
</g>
<g>
</g>
<g>
</g>
<g>
</g>
<g>
</g>
<g>
</g>
<g>
</g>
<g>
</g>
<g>
</g>
<g>
</g>
<g>
</g>
<g>
</g>
<g>
</g>
<g>
</g>
</svg>
