<?xml version="1.0" encoding="iso-8859-1"?>
<!-- Generator: Adobe Illustrator 16.0.0, SVG Export Plug-In . SVG Version: 6.00 Build 0)  -->
<!DOCTYPE svg PUBLIC "-//W3C//DTD SVG 1.1//EN" "http://www.w3.org/Graphics/SVG/1.1/DTD/svg11.dtd">
<svg xmlns="http://www.w3.org/2000/svg" xmlns:xlink="http://www.w3.org/1999/xlink" version="1.1" id="Capa_1" x="0px" y="0px" width="512px" height="512px" viewBox="0 0 493.195 493.195" style="enable-background:new 0 0 493.195 493.195;" xml:space="preserve">
<g>
	<g>
		<path d="M288.046,383.219c-14.468,4.309-28.237,6.734-41.024,7.254c-0.141-0.006-0.285-0.02-0.426-0.025    c-0.141,0.006-0.283,0.021-0.424,0.025c-12.787-0.52-26.56-2.945-41.023-7.254c-4.409-1.314-9.046,1.195-10.358,5.604    c-1.313,4.408,1.195,9.045,5.604,10.359c16.039,4.777,31.411,7.445,45.778,7.965c0.141-0.004,0.283-0.018,0.424-0.023    c0.141,0.006,0.285,0.02,0.426,0.023c14.367-0.52,29.739-3.188,45.776-7.965c4.41-1.312,6.92-5.951,5.604-10.359    C297.089,384.414,292.454,381.904,288.046,383.219z" fill="#091608"/>
		<path d="M455.462,183.165c-12.004-4.001-32.394,0.716-32.035,0.669c-2.182-37.915-12.24-91.048-49.207-132.196    C343.442,17.379,300.505,0.005,246.596,0c-53.906,0.005-96.844,17.378-127.625,51.637    c-36.966,41.148-47.023,94.282-49.205,132.196c0.357,0.047-20.031-4.67-32.035-0.669c-41.9,13.967-36.491,161.87,0.512,184.874    c29.338,18.236,57.007,7,68.518-8.459c2.205,33.959,23.651,56.984,39.542,74.033c7.762,8.328,14.465,15.518,17.24,21.799    c6.708,15.176,19.498,25.918,38.017,31.926c12.149,3.943,26.822,5.859,44.859,5.859c0.061,0,0.119-0.006,0.178-0.008    c0.061,0.002,0.119,0.008,0.178,0.008c18.038,0,32.711-1.916,44.862-5.859c18.516-6.006,31.307-16.75,38.016-31.926    c2.773-6.281,9.478-13.471,17.238-21.799c15.894-17.049,37.338-40.074,39.543-74.033c11.512,15.459,39.183,26.695,68.521,8.459    C491.956,345.035,497.364,197.131,455.462,183.165z M369.976,353.852c0,30.569-18.738,50.67-35.267,68.404    c-8.789,9.428-16.379,17.572-20.291,26.42c-8.289,18.75-30.414,27.865-67.643,27.865c-0.059,0-0.117,0.006-0.178,0.008    c-0.059-0.002-0.117-0.008-0.178-0.008c-37.229,0-59.355-9.115-67.641-27.865c-3.912-8.848-11.504-16.99-20.292-26.42    c-16.531-17.734-35.27-37.835-35.27-68.404c0-10.281-2.729-146.685-2.729-181.696c0-25.932,9.978-64.192,33.164-90.001    c21.344-23.757,53.042-32.94,92.944-32.944c39.903,0.004,71.604,9.187,92.944,32.944c23.188,25.81,33.166,64.07,33.166,90.001    C372.706,207.167,369.976,343.57,369.976,353.852z" fill="#091608"/>
		<path d="M275.88,274.867c6.166,5.762,56.856,3.201,67.818-5.762c18.973-15.51-20.55-25.605-45.897-26.246    C272.453,242.221,269.716,269.105,275.88,274.867z" fill="#091608"/>
		<path d="M217.314,274.867c6.164-5.762,3.427-32.646-21.923-32.006c-25.346,0.64-64.866,10.735-45.896,26.247    C160.455,278.068,211.149,280.629,217.314,274.867z" fill="#091608"/>
	</g>
</g>
<g>
</g>
<g>
</g>
<g>
</g>
<g>
</g>
<g>
</g>
<g>
</g>
<g>
</g>
<g>
</g>
<g>
</g>
<g>
</g>
<g>
</g>
<g>
</g>
<g>
</g>
<g>
</g>
<g>
</g>
</svg>
