<?xml version="1.0" encoding="iso-8859-1"?>
<!-- Generator: Adobe Illustrator 18.1.1, SVG Export Plug-In . SVG Version: 6.00 Build 0)  -->
<svg xmlns="http://www.w3.org/2000/svg" xmlns:xlink="http://www.w3.org/1999/xlink" version="1.1" id="Capa_1" x="0px" y="0px" viewBox="0 0 46.844 46.844" style="enable-background:new 0 0 46.844 46.844;" xml:space="preserve" width="512px" height="512px">
<g>
	<path d="M30.474,34.964h0.906c1.867,0,3.453-0.203,4.724-0.607c1.28-0.429,2.453-1.122,3.49-2.059   c2.119-1.935,3.193-4.481,3.193-7.569c0-3.109-1.061-5.672-3.156-7.618c-1.883-1.737-4.66-2.617-8.251-2.617h-0.906   c-1.18,0-1.599,1.864-1.599,3.461v13.548C28.875,33.099,29.294,34.964,30.474,34.964z M10.446,38.814   c1.379,0.645,2.917,0.986,4.597,0.986c2.479,0,4.61-0.865,6.337-2.572c0.427-0.423,0.802-0.87,1.125-1.341l3.344,1.819   c0.627,0.638,1.496,1.035,2.459,1.035h2.761c2.805,0,4.926-0.254,6.472-0.774c1.663-0.521,3.269-1.457,4.773-2.781   c3.006-2.656,4.53-6.176,4.53-10.459c0-4.268-1.464-7.767-4.35-10.4c-0.89-0.813-1.858-1.466-2.879-1.986   c-0.396-0.284-0.801-0.545-1.221-0.763c0.056,0.028,0.113,0.046,0.169,0.076l-6.309-3.433c-0.112-0.061-0.226-0.12-0.339-0.175   c-0.295-0.147-0.597-0.273-0.902-0.384c-0.041-0.016-0.085-0.026-0.127-0.04c-0.239-0.083-0.479-0.165-0.725-0.228   c-0.166-0.043-0.333-0.082-0.504-0.116c-1.439-0.324-3.413-0.311-5.852,0.033l-2.517,0.353c-0.278,0.039-0.543,0.13-0.802,0.241   c-0.031,0.013-0.067,0.015-0.099,0.029c-0.06,0.028-0.113,0.067-0.172,0.099c-0.071,0.039-0.142,0.077-0.211,0.122   c-0.039,0.024-0.081,0.043-0.12,0.068c-0.089,0.062-0.172,0.134-0.257,0.204c-0.025,0.021-0.054,0.041-0.079,0.062   c-0.013,0.011-0.024,0.018-0.037,0.029c-0.11,0.101-0.216,0.207-0.315,0.319c-0.019,0.021-0.034,0.045-0.052,0.066   c-0.029,0.035-0.057,0.072-0.086,0.109c-0.047,0.059-0.098,0.116-0.141,0.178c-0.049,0.069-0.09,0.144-0.133,0.215   c-0.024,0.041-0.052,0.08-0.074,0.121c-0.014,0.023-0.03,0.046-0.043,0.07c-0.069,0.128-0.125,0.263-0.181,0.398   c-0.013,0.036-0.033,0.068-0.046,0.105c-0.002,0.004-0.005,0.008-0.007,0.014c-0.055,0.151-0.092,0.31-0.128,0.469   c-0.012,0.053-0.034,0.103-0.043,0.155c-0.041,0.221-0.063,0.444-0.063,0.673l-0.002,0.412c-0.292-0.086-0.592-0.164-0.902-0.23   L12.38,8.918c-0.067-0.036-0.135-0.071-0.204-0.106c-0.127-0.062-0.274-0.097-0.407-0.15c-0.206-0.082-0.41-0.169-0.632-0.231   c-0.049-0.013-0.09-0.037-0.14-0.051c-0.286-0.074-0.588-0.13-0.898-0.171C10.05,8.202,9.996,8.202,9.946,8.197   C9.603,8.158,9.244,8.141,8.872,8.141c-0.113,0-0.228,0.002-0.344,0.006c-0.431,0.015-0.873,0.046-1.341,0.11   C6.93,8.294,6.661,8.359,6.375,8.449C6.277,8.48,6.169,8.53,6.069,8.568c-0.193,0.07-0.386,0.141-0.591,0.236   C5.454,8.815,5.433,8.82,5.409,8.831C5.236,8.911,5.05,9.019,4.867,9.117C4.762,9.174,4.662,9.219,4.554,9.282   C4.234,9.466,3.9,9.671,3.548,9.903C3.454,9.965,3.36,10.029,3.27,10.091c-0.031,0.021-0.051,0.043-0.082,0.063   c-0.33,0.233-0.63,0.465-0.888,0.696c-0.013,0.009-0.029,0.021-0.04,0.029c-0.042,0.038-0.072,0.076-0.113,0.113   c-0.12,0.114-0.233,0.227-0.337,0.339c-0.022,0.025-0.053,0.05-0.074,0.074c-0.04,0.044-0.07,0.09-0.107,0.135   c-0.055,0.066-0.108,0.131-0.156,0.196c-0.02,0.028-0.047,0.057-0.065,0.083c-0.044,0.062-0.076,0.123-0.115,0.184   c-0.027,0.044-0.057,0.089-0.081,0.132c-0.011,0.019-0.024,0.037-0.034,0.055c-0.039,0.075-0.067,0.149-0.101,0.225   c-0.02,0.047-0.047,0.096-0.065,0.145c-0.001,0.006-0.005,0.012-0.008,0.019C1,12.589,1.002,12.6,0.998,12.608   c-0.093,0.266-0.147,0.53-0.147,0.795c-0.001,0.599,0.197,1.122,0.595,1.521c0.132,0.13,0.273,0.238,0.425,0.32l5.347,2.908   l-1.532,0.627c-0.185,0.096-0.35,0.195-0.499,0.297c-0.005,0.004-0.014,0.009-0.018,0.013c-0.085,0.061-0.155,0.121-0.232,0.183   c-0.046,0.036-0.099,0.072-0.141,0.11c0,0-0.004,0.004-0.007,0.006c-0.093,0.083-0.176,0.167-0.25,0.251   c-0.008,0.008-0.014,0.018-0.021,0.025c-0.022,0.027-0.043,0.055-0.064,0.082c-0.034,0.043-0.071,0.086-0.102,0.129   c-0.016,0.023-0.028,0.046-0.043,0.07c-0.025,0.037-0.046,0.073-0.067,0.109c-0.013,0.021-0.028,0.042-0.039,0.064   c-0.018,0.03-0.027,0.062-0.044,0.093c-0.023,0.05-0.046,0.098-0.064,0.146c-0.007,0.017-0.017,0.034-0.023,0.051   c-0.009,0.024-0.011,0.047-0.019,0.071c-0.028,0.085-0.05,0.169-0.066,0.25c-0.007,0.035-0.015,0.07-0.021,0.104   c-0.016,0.107-0.025,0.212-0.025,0.308c0,0.481,0.131,1.187,0.835,1.569l6.31,3.432c-0.023-0.012-0.033-0.031-0.055-0.044   c0.068,0.042,0.141,0.082,0.223,0.117c0.052,0.296,0.082,0.607,0.082,0.945c0,0.22-0.025,0.433-0.066,0.642   c-0.014,0.071-0.038,0.141-0.058,0.212c-0.036,0.141-0.076,0.28-0.134,0.417c-0.022,0.054-0.047,0.107-0.072,0.162   c-0.081,0.173-0.174,0.345-0.287,0.511c-0.007,0.011-0.012,0.021-0.019,0.032c-0.14,0.2-0.302,0.396-0.488,0.588   c-0.146,0.151-0.3,0.28-0.454,0.406c-0.063,0.051-0.126,0.104-0.189,0.149c-0.104,0.076-0.212,0.14-0.32,0.203   c-0.096,0.058-0.192,0.12-0.292,0.169c-0.127,0.064-0.261,0.113-0.394,0.162c-0.075,0.028-0.148,0.062-0.226,0.086   c-0.215,0.065-0.437,0.116-0.666,0.149c-0.011,0.001-0.021,0-0.031,0.001l-4.48-2.436c-0.019-0.011-0.038-0.021-0.057-0.029   c-0.097-0.048-0.192-0.083-0.286-0.107c-0.046-0.012-0.087-0.011-0.132-0.019c-0.037-0.006-0.07-0.011-0.107-0.015   c-0.143-0.014-0.279-0.014-0.399,0.002c-0.236,0.034-0.461,0.102-0.675,0.201c-0.029,0.014-0.057,0.035-0.086,0.051   c-0.027,0.015-0.053,0.031-0.08,0.046c-0.061,0.035-0.124,0.064-0.183,0.105c-0.093,0.065-0.184,0.136-0.271,0.215   c-0.066,0.06-0.131,0.123-0.193,0.19c-0.015,0.017-0.029,0.032-0.044,0.049c-0.069,0.078-0.134,0.159-0.192,0.243   c-0.014,0.019-0.024,0.039-0.036,0.06c-0.017,0.024-0.031,0.05-0.046,0.074c-0.027,0.043-0.057,0.086-0.081,0.13   c-0.03,0.056-0.052,0.113-0.077,0.17c-0.016,0.034-0.031,0.066-0.045,0.101c-0.007,0.016-0.015,0.032-0.022,0.049   c-0.007,0.019-0.004,0.039-0.011,0.058C0.054,30.432,0,30.687,0,30.954c0,0.264,0.043,0.521,0.131,0.783   c0.472,1.375,1.351,2.416,2.61,3.102l6.31,3.432c-0.112-0.061-0.204-0.141-0.31-0.207c0.251,0.158,0.502,0.316,0.788,0.442   C9.82,38.636,10.133,38.729,10.446,38.814z M37.321,11.094c0.091,0.033,0.177,0.084,0.268,0.12c-0.127-0.05-0.25-0.109-0.378-0.155   C37.247,11.073,37.285,11.081,37.321,11.094z M26.237,14.172c0-1.145,0.932-2.076,2.076-2.076h2.824   c2.591,0,4.652,0.256,6.144,0.764c1.562,0.485,3.002,1.322,4.278,2.49c2.587,2.36,3.899,5.515,3.899,9.378   c0,3.924-1.329,7.006-4.062,9.421c-1.358,1.194-2.795,2.037-4.284,2.505c-1.396,0.467-3.43,0.705-6.045,0.705h-2.761   c-1.142,0-2.07-0.932-2.07-2.076L26.237,14.172L26.237,14.172z M7.883,34.267c-0.046-0.138-0.068-0.268-0.068-0.387   c0-0.26,0.089-0.452,0.29-0.626c0.225-0.196,0.467-0.288,0.762-0.288c0.163,0,0.386,0.042,0.614,0.331l0.812,1.217   c0.489,0.668,1.154,1.172,1.974,1.5c0.781,0.313,1.717,0.474,2.778,0.474c1.414,0,2.671-0.449,3.736-1.332   c1.164-0.962,1.753-2.163,1.753-3.57c0-1.948-0.729-3.528-2.176-4.703c-1.229-0.976-2.859-1.577-4.851-1.786   c-1.291-0.127-1.291-0.625-1.291-0.864c0-0.352,0.351-0.654,0.977-0.881l4.192-1.04c0.91-0.328,1.614-0.792,2.094-1.376   c0.503-0.609,0.766-1.354,0.78-2.208c0.028-1.241-0.457-2.255-1.443-3.016c-0.961-0.736-2.293-1.11-3.961-1.11   c-0.892,0-1.765,0.218-2.644,0.675l-1.955,1.228c-0.389,0.247-0.542,0.255-0.542,0.255c-0.268,0-0.481-0.097-0.679-0.308   c-0.207-0.222-0.304-0.453-0.304-0.726c0-0.598,0.798-1.308,2.252-2.002c1.429-0.697,2.598-1.052,3.475-1.052   c2.309,0,4.148,0.504,5.468,1.5c1.384,1.045,2.056,2.506,2.056,4.47c0,2.412-0.93,3.951-2.848,4.71   c-0.182,0.072-0.388,0.147-0.62,0.222l-1.93,0.607l1.898,0.701c1.385,0.512,2.428,1.274,3.101,2.268   c0.677,1,1.021,2.283,1.021,3.814c0,2.092-0.718,3.819-2.194,5.281c-1.477,1.461-3.231,2.172-5.363,2.172   c-1.616,0-3.081-0.34-4.35-1.003C9.286,36.651,8.364,35.617,7.883,34.267z" fill="#08da6e"/>
</g>
<g>
</g>
<g>
</g>
<g>
</g>
<g>
</g>
<g>
</g>
<g>
</g>
<g>
</g>
<g>
</g>
<g>
</g>
<g>
</g>
<g>
</g>
<g>
</g>
<g>
</g>
<g>
</g>
<g>
</g>
</svg>
