<?xml version="1.0" encoding="iso-8859-1"?><!DOCTYPE svg PUBLIC "-//W3C//DTD SVG 1.1//EN" "http://www.w3.org/Graphics/SVG/1.1/DTD/svg11.dtd"><svg xmlns="http://www.w3.org/2000/svg" xmlns:xlink="http://www.w3.org/1999/xlink"><symbol viewBox="0 0 732.438 732.438" id="ico--clean" xmlns="http://www.w3.org/2000/svg"><g><path d="M662.688 13.546L491.347 345.754c.983.276 1.964.569 2.938.883 7.235 2.33 14.028 5.17 20.353 8.499 7.646 4.025 14.597 8.771 20.807 14.198L707.126 36.466c6.329-12.271 1.513-27.35-10.759-33.679-12.272-6.33-27.349-1.513-33.679 10.759zM96.597 629.659c27.24 24.567 60.687 45.974 99.412 63.623 65.396 29.808 122.948 38.61 125.365 38.971l.201.028a17.01 17.01 0 0 0 2.856.147c68.797-2.246 122.417-25.158 159.368-68.1 48.598-56.477 66.162-141.396 62.748-214.401-.979-20.902-8.423-42.237-23.035-57.459a70.706 70.706 0 0 0-3.376-3.306c-5.127-4.665-10.862-8.566-16.964-11.798-5.289-2.801-10.854-5.099-16.55-6.933a54.418 54.418 0 0 0-7.096-1.762 55.442 55.442 0 0 0-9.811-.875c-24.122 0-47.247 15.161-64.911 30.646-18.24 15.992-36.755 33.421-57.363 47.073-22.585 14.962-47.38 22.497-73.202 29.851-33.351 9.498-67.641 15.564-102.078 19.429-30.618 3.435-61.647 5.433-92.587 5.433-12.28 0-24.541-.315-36.763-.979-.709-.038-1.418-.073-2.126-.122a16.975 16.975 0 0 0-14.651 6.604 16.98 16.98 0 0 0-2.584 15.862C37.39 562.098 62 598.457 96.597 629.659zM72.798 534.07h.031c1.718.011 3.495.018 5.319.018 25.01 0 59.86-1.107 98.956-5.557 82.72-9.414 150.153-29.545 201.203-59.971a9.194 9.194 0 0 1 4.711-1.296c1.541 0 3.083.384 4.479 1.151 29.672 16.308 75.781 40.474 108.659 52.206 4.069 1.452 6.587 5.529 6.095 9.821-3.927 34.31-15.064 77.974-44.329 111.89-29.974 34.736-74.236 53.582-131.601 56.039a12.828 12.828 0 0 1-2.757-.183c-5.781-1.021-20.042-3.771-39.179-9.039 5.455-2.409 11.098-5.297 16.801-8.518 5.106-2.885 10.256-6.028 15.354-9.318 15.771-10.173 31.043-21.723 42.925-31.227 2.749-2.197.17-6.491-3.076-5.13-25.975 10.898-59.161 18.186-88.854 22.977a781.181 781.181 0 0 1-26.625 3.811 861.943 861.943 0 0 1-25.841 2.861 431.795 431.795 0 0 1-5.75-2.581c-16.525-7.57-31.943-15.86-46.199-24.798 6.222-.576 12.76-1.608 19.391-2.957 6.024-1.226 12.117-2.71 18.114-4.339 17.659-4.796 34.451-10.852 45.937-15.312 2.186-.849 1.407-4.11-.928-3.886-20.907 2.012-49.906 2.197-74.67 1.833-8.112-.119-15.767-.297-22.536-.489a1675.46 1675.46 0 0 1-21.108-.728 283.114 283.114 0 0 1-8.326-7.227 265.237 265.237 0 0 1-10.119-9.666c5.027-.51 10.246-1.31 15.546-2.324a264.591 264.591 0 0 0 14.969-3.344c19.719-4.976 38.959-11.876 51.687-16.817 2.186-.85 1.407-4.111-.928-3.887-19.628 1.89-46.387 2.168-70.079 1.894-5.844-.068-11.499-.168-16.816-.287-5.917-.132-11.414-.286-16.278-.44-6.884-9.15-12.967-18.648-18.219-28.478-1.621-3.031.608-6.702 4.041-6.702z"/><circle cx="621.247" cy="619.725" r="40.132"/><circle cx="534.692" cy="711.631" r="20.275"/><circle cx="644.636" cy="706.954" r="20.275"/></g></symbol><symbol viewBox="0 0 664.031 664.031" id="ico--cleaneng" xmlns="http://www.w3.org/2000/svg"><g><path d="M332.016 663.939c174.338 0 315.668 9.506 315.668-164.834 0-135.946-85.94-304.758-206.454-372.517H222.802C102.288 194.347 16.348 363.159 16.348 499.105c0 174.339 141.329 164.834 315.668 164.834zM201.375 383.672a512.608 512.608 0 0 1 3.22-4.568 4.935 4.935 0 0 0 .842-3.771 4.95 4.95 0 0 0-2.119-3.244l-21.573-14.553c-1.126-.76-1.641-2.009-1.377-3.341.264-1.333 1.216-2.292 2.547-2.564l83.238-17.049a3.263 3.263 0 0 1 3.868 2.609l15.38 83.575c.18.977-.061 1.919-.676 2.658-1.052 1.262-2.95 1.592-4.361.641l-22.979-15.499a4.957 4.957 0 0 0-2.788-.854c-1.6 0-3.111.775-4.042 2.073-3.018 4.206-6.597 9.303-10.251 15.207-6.887 10.867-12.083 22.754-13.235 30.268-.579 3.545-.908 7.261.588 10.427 2.536 5.364 7.969 8.257 13.462 10.585 4.824 2.043 10.125 3.647 15.755 4.771 8.573 1.71 18.708 2.069 25.698 2.069 4.253 0 7.036-.134 7.201-.143 1.412-.112 2.675.965 2.789 2.371l4.037 50.092c-.048.769-.282 2.68-3.14 2.861-.047.001-4.769.065-10.358.065-7.591 0-13.209-.117-16.247-.339-19.516-1.421-37.232-5.861-52.639-13.19-14.939-7.361-26.329-17.625-33.852-30.506a65.052 65.052 0 0 1-2.633-4.979c-8.555-18.472-8.548-38.853.02-62.3 6.458-17.412 16.02-32.328 23.625-43.372zm83.677-141.922c13.049-10.349 27.201-16.247 42.062-17.53a64.886 64.886 0 0 1 5.627-.247c20.356.178 38.771 8.911 56.292 26.693 12.969 13.286 22.354 28.316 29.079 39.918a483.809 483.809 0 0 1 2.75 4.866 4.98 4.98 0 0 0 6.887 1.85l22.388-13.265c1.437-.852 3.259-.456 4.258.817.618.788.823 1.771.578 2.77l-20.233 82.521a3.253 3.253 0 0 1-4.012 2.378l-82.112-21.886c-1.312-.35-2.208-1.363-2.394-2.708-.186-1.346.401-2.562 1.57-3.256l23.845-14.131a4.955 4.955 0 0 0 1.823-6.694c-2.512-4.533-5.588-9.953-9.354-15.773-6.872-10.876-15.389-20.662-21.687-24.92-2.956-2.041-6.174-3.929-9.687-3.932-5.928 0-10.865 3.669-15.316 7.634-3.912 3.484-7.633 7.587-11.059 12.195-8.555 11.506-15.518 28.158-15.829 28.907-.488 1.293-2.027 2-3.336 1.505l-46.997-17.8c-.673-.373-2.301-1.402-1.242-4.062.08-.175 8.034-17.558 11.639-23.926 9.64-17.03 21.24-31.139 34.46-41.924zm85.944 297.395l-.094 26.023c-.007 2.042-1.683 3.263-3.299 3.263-.591 0-1.464-.165-2.26-.95l-60.469-59.688c-.629-.622-.975-1.451-.972-2.335s.354-1.712.988-2.329l60.897-59.27c.794-.773 1.657-.936 2.243-.936.886 0 1.751.36 2.376.988.424.424.927 1.167.923 2.298l-.098 27.718a4.955 4.955 0 0 0 4.812 4.997c2.772.09 6.479.194 10.563.194 2.702 0 5.25-.044 7.774-.134 12.862-.322 25.63-2.616 32.515-5.839 3.269-1.49 6.539-3.284 8.337-6.288 3.047-5.091 2.43-11.215 1.309-17.075-.985-5.146-2.601-10.444-4.798-15.747-5.491-13.246-16.217-27.764-16.699-28.413a2.563 2.563 0 0 1-.544-1.905 2.565 2.565 0 0 1 .962-1.73l39.379-31.216c1.577-.895 2.968-.497 4.127 1.016.109.158 10.954 15.898 14.572 22.261 9.675 17.008 15.839 34.201 18.317 51.081 2.193 16.51-.001 31.684-6.521 45.101a65.963 65.963 0 0 1-2.672 4.958c-10.592 17.385-27.533 28.716-51.784 34.639-16.976 4.061-33.242 4.53-44.002 4.53-1.792 0-3.525-.016-5.181-.036a503.608 503.608 0 0 1-5.588-.136l-.146-.002c-2.727-.002-4.957 2.225-4.967 4.962zM266.894 94.29h130.245l27.459-59.501C432.095 18.544 420.229 0 402.338 0H261.695c-17.891 0-29.757 18.544-22.26 34.789l27.459 59.501z"/></g></symbol><symbol viewBox="0 0 512.001 512.001" id="ico--colors" xmlns="http://www.w3.org/2000/svg"><path d="M330.473 126.308c-.625-10.567-5.338-20.256-13.273-27.278a39.702 39.702 0 0 0-26.349-9.988 39.862 39.862 0 0 0-29.731 13.314c-7.064 7.923-10.606 18.112-9.982 28.69.624 10.567 5.338 20.258 13.273 27.284a39.701 39.701 0 0 0 26.345 9.984 39.866 39.866 0 0 0 29.733-13.315c7.063-7.924 10.607-18.114 9.984-28.691zm-21.684 18.26a24.174 24.174 0 0 1-18.033 8.072 24.047 24.047 0 0 1-15.956-6.045c-4.792-4.243-7.64-10.095-8.016-16.475-.377-6.391 1.766-12.546 6.035-17.337a24.172 24.172 0 0 1 18.031-8.07 24.039 24.039 0 0 1 15.959 6.049c4.792 4.242 7.638 10.091 8.016 16.469.378 6.389-1.766 12.546-6.036 17.337zM215.612 125.019c-1.227-20.907-18.622-37.285-39.602-37.285-.794 0-1.6.023-2.394.071-21.874 1.299-38.625 20.104-37.341 41.918 1.231 20.905 18.622 37.282 39.598 37.282.796 0 1.604-.024 2.398-.071 21.87-1.296 38.621-20.099 37.341-41.915zm-38.271 26.27c-13.323.781-24.647-9.369-25.418-22.485-.776-13.192 9.373-24.566 22.624-25.353.49-.028.98-.043 1.463-.043 12.691 0 23.215 9.896 23.955 22.53.774 13.193-9.373 24.565-22.624 25.351zM133.374 205.045c-.623-10.568-5.336-20.26-13.271-27.286a39.71 39.71 0 0 0-26.345-9.984 39.873 39.873 0 0 0-29.737 13.317c-7.061 7.924-10.608 18.112-9.982 28.69.625 10.568 5.336 20.256 13.271 27.28a39.708 39.708 0 0 0 26.347 9.985 39.866 39.866 0 0 0 29.733-13.315c7.064-7.923 10.608-18.11 9.984-28.687zm-21.684 18.258a24.174 24.174 0 0 1-18.033 8.071 24.051 24.051 0 0 1-15.957-6.046c-4.792-4.242-7.639-10.092-8.016-16.471-.377-6.389 1.767-12.545 6.036-17.336a24.183 24.183 0 0 1 18.037-8.074 24.046 24.046 0 0 1 15.953 6.044c4.794 4.245 7.641 10.097 8.019 16.477.375 6.388-1.767 12.544-6.039 17.335zM131.93 319.56c-1.226-20.908-18.622-37.285-39.604-37.285-.792 0-1.598.024-2.392.071-21.87 1.301-38.618 20.105-37.338 41.916 1.225 20.908 18.618 37.286 39.597 37.286.796 0 1.602-.024 2.398-.071 21.87-1.303 38.619-20.107 37.339-41.917zm-38.268 26.272c-13.331.797-24.651-9.37-25.418-22.487-.775-13.192 9.374-24.566 22.62-25.355.49-.028.98-.043 1.463-.043 12.693 0 23.217 9.896 23.957 22.529.773 13.192-9.374 24.566-22.622 25.356zM212.127 401.428c-.625-10.567-5.338-20.256-13.271-27.281a39.702 39.702 0 0 0-26.347-9.985 39.863 39.863 0 0 0-29.733 13.316c-7.064 7.923-10.608 18.112-9.984 28.689.625 10.567 5.338 20.257 13.271 27.282a39.705 39.705 0 0 0 26.347 9.987 39.87 39.87 0 0 0 29.737-13.318c7.062-7.925 10.606-18.114 9.98-28.69zm-21.68 18.261a24.174 24.174 0 0 1-18.035 8.074 24.048 24.048 0 0 1-15.956-6.047c-4.792-4.244-7.639-10.095-8.016-16.474-.378-6.388 1.765-12.545 6.036-17.336a24.174 24.174 0 0 1 18.033-8.072 24.042 24.042 0 0 1 15.956 6.045c4.794 4.244 7.641 10.094 8.019 16.473.376 6.388-1.768 12.546-6.037 17.337zM326.99 402.753c-1.226-20.908-18.624-37.286-39.608-37.286-.792 0-1.596.023-2.39.071-21.87 1.303-38.621 20.108-37.341 41.919 1.227 20.907 18.622 37.285 39.602 37.285.794 0 1.6-.023 2.394-.071 21.872-1.299 38.623-20.104 37.343-41.918zm-38.271 26.273c-13.323.759-24.651-9.37-25.42-22.487-.775-13.192 9.376-24.567 22.624-25.356.488-.029.976-.044 1.46-.044 12.696 0 23.221 9.897 23.962 22.531.774 13.194-9.377 24.568-22.626 25.356zM409.227 322.693c-.624-10.569-5.338-20.256-13.271-27.28a39.714 39.714 0 0 0-26.349-9.986 39.858 39.858 0 0 0-29.731 13.315c-7.064 7.924-10.61 18.112-9.986 28.69.625 10.568 5.338 20.259 13.273 27.284a39.708 39.708 0 0 0 26.347 9.985 39.87 39.87 0 0 0 29.735-13.316c7.061-7.923 10.608-18.114 9.982-28.692zm-21.681 18.263a24.183 24.183 0 0 1-18.035 8.072 24.046 24.046 0 0 1-15.958-6.046c-4.792-4.244-7.638-10.095-8.016-16.474-.377-6.389 1.767-12.546 6.038-17.338a24.173 24.173 0 0 1 18.031-8.071 24.052 24.052 0 0 1 15.959 6.047c4.792 4.242 7.637 10.092 8.014 16.471.381 6.391-1.764 12.549-6.033 17.339z"/><path d="M506.687 20.188c-3.428-3.427-8.113-5.314-13.19-5.314-5.775 0-11.557 2.466-15.859 6.768l-38.839 38.834-.004.004-.004.004-36.366 36.36c-2.967 2.238-5.92 4.496-8.869 6.762-2.672-4.887-6.194-9.318-10.496-13.006-44.186-37.877-100.778-57.596-159.32-55.505-58.872 2.096-114.207 26.09-155.817 67.561C24.123 146.314 0 204.435 0 266.308c0 61.776 24.057 119.777 67.741 163.318 45.153 45.003 104.471 67.502 163.816 67.502 59.431 0 118.886-22.566 164.156-67.687 17.138-17.083 31.42-36.613 42.449-58.047a7.838 7.838 0 0 0-3.381-10.555 7.845 7.845 0 0 0-10.556 3.382c-10.282 19.981-23.596 38.189-39.578 54.118-84.369 84.094-221.57 84.177-305.841.185-40.712-40.579-63.133-94.637-63.133-152.217 0-57.677 22.486-111.854 63.317-152.55 38.798-38.671 90.405-61.044 145.308-62.999 54.609-1.933 107.37 16.432 148.562 51.74a30.94 30.94 0 0 1 8.111 10.905A1255.85 1255.85 0 0 0 248.25 234.527c-.276.061-.551.112-.822.196-13.464 4.17-25.424 14.458-36.569 31.449-9.061 13.811-16.494 30.352-23.073 44.994-5.041 11.213-9.802 21.804-14.459 29.363-2.323 3.749-1.782 8.535 1.321 11.645a9.374 9.374 0 0 0 6.64 2.755 9.478 9.478 0 0 0 4.989-1.425c7.584-4.673 18.192-9.439 29.426-14.487 4.649-2.088 9.455-4.246 14.365-6.547a7.837 7.837 0 0 0-6.648-14.194c-4.8 2.247-9.549 4.38-14.143 6.446-4.529 2.034-8.961 4.026-13.184 6.004 1.978-4.217 3.967-8.647 6.006-13.181 6.321-14.063 13.483-30.002 21.863-42.774 7.644-11.657 15.38-19.307 23.525-23.252l1.381 1.381-6.516 6.517a7.836 7.836 0 0 0 5.541 13.379c2.004 0 4.01-.765 5.541-2.295l6.518-6.519 2.898 2.897-14.216 14.213a7.833 7.833 0 0 0 0 11.082 7.81 7.81 0 0 0 5.541 2.296c2.006 0 4.01-.765 5.541-2.295l14.218-14.215 1.381 1.382c-3.942 8.138-11.594 15.871-23.253 23.518a7.834 7.834 0 0 0-2.257 10.85 7.833 7.833 0 0 0 10.851 2.256c16.994-11.143 27.283-23.102 31.454-36.553.086-.28.141-.562.2-.844a1262.15 1262.15 0 0 0 44.267-44.151c.287.309.567.625.869.925 13.963 13.917 36.696 13.908 50.678-.025l6.308-6.288c8.545-8.518 21.388-11.341 32.719-7.188 11.316 4.143 19.249 14.559 20.21 26.532 2.194 27.341-.76 54.445-8.775 80.562a7.837 7.837 0 0 0 5.194 9.791c4.13 1.264 8.52-1.054 9.79-5.193 8.6-28.017 11.768-57.091 9.415-86.414-1.449-18.055-13.4-33.754-30.443-39.995-17.025-6.24-36.329-1.999-49.174 10.804l-6.308 6.289c-7.873 7.85-20.682 7.864-28.549.024-.406-.405-.786-.83-1.151-1.263a1237.199 1237.199 0 0 0 32.726-36.566 7.834 7.834 0 0 0-.835-11.051 7.835 7.835 0 0 0-11.051.835 1208.78 1208.78 0 0 1-8.612 9.892l-18.832-18.83a1235.14 1235.14 0 0 1 66.122-54.127l6.849 6.847a1235.795 1235.795 0 0 1-25.245 32.001 7.837 7.837 0 1 0 12.143 9.911 1254.375 1254.375 0 0 0 29.39-37.452l75.218-75.206c3.896-3.896 6.276-8.936 6.7-14.19.458-5.65-1.454-11.064-5.246-14.855zm-223.19 245.169l-22.02-22.017c2.923-3.066 5.863-6.115 8.818-9.151l22.347 22.343a1285.63 1285.63 0 0 1-9.145 8.825zm20.308-19.825l-22.5-22.498c2.704-2.708 5.421-5.406 8.151-8.091l22.433 22.431a1219.13 1219.13 0 0 1-8.084 8.158zm19.006-19.402l-22.106-22.105c2.764-2.649 5.541-5.287 8.331-7.912l21.694 21.689a1270.299 1270.299 0 0 1-7.919 8.328zm26.342-28.311a1215.399 1215.399 0 0 1-7.745 8.497l-20.888-20.881c2.824-2.591 5.663-5.168 8.511-7.733l20.122 20.117zm74.95-89.631l-5.428-5.426 25.662-25.659 5.428 5.426-25.662 25.659zm72.208-74.409c-.122 1.528-.912 3.121-2.161 4.372l-33.302 33.298-5.428-5.427 33.3-33.295c1.366-1.365 3.151-2.179 4.777-2.179.631 0 1.508.125 2.109.725.732.732.756 1.884.705 2.506z"/></symbol><symbol viewBox="0 0 512 512" id="ico--delivery" xmlns="http://www.w3.org/2000/svg"><path d="M509.14 261.159c.203-.198.332-.318.332-.318l-75.734-86.458s-.185.08-.496.206a10.177 10.177 0 0 0-7.846-3.685h-65.199v-61.178c0-5.632-4.566-10.199-10.199-10.199H29.3c-5.633 0-10.199 4.567-10.199 10.199v224.04h-8.902C4.566 333.766 0 338.333 0 343.965s4.566 10.199 10.199 10.199h8.902v11.919c0 5.632 4.566 10.199 10.199 10.199h20.099c4.661 20.687 23.172 36.191 45.247 36.191s40.586-15.504 45.248-36.191h239.251v-.001c4.661 20.687 23.172 36.191 45.247 36.191s40.586-15.504 45.248-36.191h32.162c5.633 0 10.199-4.567 10.199-10.199v-97.851a10.16 10.16 0 0 0-2.861-7.072zM94.646 392.074c-14.332 0-25.992-11.661-25.992-25.992 0-14.331 11.66-25.992 25.992-25.992s25.993 11.661 25.993 25.992c-.001 14.331-11.66 25.992-25.993 25.992zm245.153-36.192H139.893c-4.661-20.687-23.172-36.191-45.248-36.191-22.075 0-40.586 15.504-45.247 36.191h-9.899v-44.947h300.299v44.947zm0-65.345h-300.3V119.924h300.299v170.613zm95.797-83.077l44.299 50.572h-44.299V207.46zm-11.205 184.614c-14.332 0-25.992-11.661-25.992-25.992 0-14.331 11.66-25.992 25.992-25.992s25.993 11.661 25.993 25.992c0 14.331-11.661 25.992-25.993 25.992zm67.211-36.192h-21.963c-4.661-20.687-23.172-36.191-45.248-36.191-22.075 0-40.586 15.504-45.247 36.191h-18.947V191.301h55v76.929c0 5.632 4.566 10.199 10.199 10.199h66.205v77.453z"/><path d="M315.155 259.059h-85.673c-5.633 0-10.199 4.567-10.199 10.199s4.566 10.199 10.199 10.199h85.673c5.633 0 10.199-4.567 10.199-10.199s-4.566-10.199-10.199-10.199zM197.865 259.059h-6.12c-5.633 0-10.199 4.567-10.199 10.199s4.566 10.199 10.199 10.199h6.12c5.633 0 10.199-4.567 10.199-10.199s-4.566-10.199-10.199-10.199z"/></symbol><symbol viewBox="0 0 512.007 512.007" id="ico--eco" xmlns="http://www.w3.org/2000/svg"><path d="M135.975 347.442c-1.673-1.51-4.625-3.311-9.122-3.311H82.3v-20.779h38.298c3.652 0 6.997-1.348 9.446-3.797a12.304 12.304 0 0 0 3.678-8.798c0-3.447-1.246-6.528-4.002-9.25-2.423-2.202-5.572-3.354-9.122-3.354H82.027l-.529-17.374h43.648c3.575 0 6.878-1.348 9.327-3.797a12.348 12.348 0 0 0 3.678-8.798c0-3.396-1.297-6.579-4.002-9.25-2.424-2.202-5.547-3.354-9.003-3.354H77.649c-6.596 0-12.177 2.423-16.179 7.023-3.371 3.925-5.146 8.977-5.146 14.575v70.673c0 5.547 1.724 10.402 5.171 14.473 2.748 3.174 7.799 6.972 16.154 6.972h49.203c4.779 0 7.825-2.099 9.353-3.678 2.449-2.347 3.772-5.521 3.772-8.926 0-3.405-1.297-6.579-4.002-9.25zM241.114 324.223c-1.877-3.012-4.779-5.018-8.354-5.811a14.15 14.15 0 0 0-3.021-.324l-4.429.529-2.074 1.178c-3.354 1.929-5.598 5.171-6.246 8.875-1.476 6.75-3.977 11.401-7.552 14.097-3.174 2.372-7.629 3.576-13.252 3.576-7.501 0-12.979-2.347-17.271-7.398-4.975-5.854-7.501-14.754-7.501-26.479 0-11.426 2.551-20.275 7.475-26.197 4.497-5.222 10.001-7.671 17.297-7.671 5.726 0 10.172 1.178 13.602 3.575 3.524 2.475 5.726 6.221 6.724 11.273.896 5.103 3.678 7.876 5.572 9.122 2.125 1.502 4.599 2.304 7.151 2.304l2.876-.324c3.251-.725 6.101-2.603 8.098-5.453 1.929-2.876 2.671-6.221 2.125-10.027-1.929-10.3-6.528-18.722-13.798-25.096-8.226-7.023-19.123-10.573-32.35-10.573-15.147 0-27.571 5.675-36.898 16.828-9.199 10.803-13.85 25.028-13.85 42.249 0 17.604 4.676 31.923 13.824 42.479 9.301 11.025 21.726 16.597 36.924 16.597 13.278 0 24.201-3.849 32.452-11.426 6.903-6.246 11.648-14.729 14.174-25.25 1.126-5.03-.375-8.682-1.698-10.653zM345.946 272.221c-9.6-12.527-23.1-18.85-40.201-18.85-17.203.009-30.78 6.366-40.397 18.961-7.902 10.65-11.904 24.149-11.904 40.124 0 15.974 4.002 29.448 11.947 40.021 9.549 12.646 23.125 19.046 40.354 19.046 17.101 0 30.626-6.4 40.175-19.004 8.149-10.598 12.254-24.073 12.254-40.073 0-15.974-4.096-29.499-12.228-40.225zm-20.369 65.032c-4.548 6.272-10.871 9.199-19.823 9.199-9.028 0-15.326-2.927-19.797-9.148-4.326-6.05-6.528-14.396-6.528-24.849 0-10.522 2.202-18.876 6.554-24.875 4.446-6.221 10.752-9.148 19.772-9.148 8.951 0 15.249 2.927 19.823 9.225 4.395 6.024 6.622 14.379 6.622 24.798-.001 10.351-2.254 18.723-6.623 24.798z"/><path d="M500.681 8.387c-1.562-4.25-5.291-7.373-9.839-8.201l-2.159-.179c-3.772 0-7.322 1.621-9.754 4.446-8.286 9.677-31.223 13.722-53.478 17.647-31.403 5.555-70.613 12.979-93.961 40.226-12.51-27.896-38.528-50.458-61.423-61.124a12.818 12.818 0 0 0-12.698 1.067c-3.678 2.577-5.828 6.955-5.47 11.52.623 8.004-9.856 20.855-19.985 33.28-12.578 15.403-27.605 34.219-31.292 55.543C89.468 104.865.005 195.506.005 307.207c0 113.109 91.691 204.8 204.8 204.8s204.8-91.691 204.8-204.8c0-38.801-10.991-74.948-29.73-105.873a106.444 106.444 0 0 0 26.871 3.447c35.934 0 63.565-13.397 82.099-39.876 32.973-47.044 24.764-120.968 11.836-156.518zM251.746 63.239c8.474-10.385 16.674-20.42 21.47-30.805 18.534 12.723 35.78 32.879 39.543 54.221 2.466 13.995-1.399 27.443-10.914 40.192a202.99 202.99 0 0 0-17.596-8.448c2.193-10.701 3.601-22.622 1.894-37.06-.828-7.023-7.194-12.041-14.216-11.204-7.006.862-12.032 7.219-11.204 14.217 1.135 9.591.418 17.929-.956 25.745-10.692-2.978-21.666-5.257-32.99-6.468 3.047-12.187 12.332-24.885 24.969-40.39zm132.259 243.968c0 98.807-80.393 179.2-179.2 179.2s-179.2-80.393-179.2-179.2 80.393-179.2 179.2-179.2 179.2 80.393 179.2 179.2zm83.882-156.97c-13.449 19.2-34.014 28.954-61.141 28.954-19.328 0-36.463-5.897-49.135-16.776 9.66-7.296 20.659-13.278 32.776-17.749l2.697-1.05c22.059-7.697 42.684-7.501 44.297-7.125l2.748.299c6.025 0 11.162-4.096 12.501-10.001 1.263-5.7-1.502-11.375-6.409-14.046 12.015-10.846 21.513-23.45 28.373-37.649a12.752 12.752 0 0 0 .546-9.779 12.645 12.645 0 0 0-6.528-7.296c-6.11-2.901-14.123-.154-17.084 5.948-10.197 21.129-27.221 37.299-51.797 49.126 1.51-10.675-.154-21.274-4.975-30.925-3.046-6.153-11.187-8.678-17.135-5.751a12.725 12.725 0 0 0-6.451 7.398 12.634 12.634 0 0 0 .691 9.779c7.697 15.428-2.022 29.5-5.786 34.074-8.422 4.198-16.358 9.097-23.697 14.626-4.361-9.498-6.025-19.977-4.813-30.797 5.41-48.802 47.616-56.252 92.339-64.154 19.098-3.379 37.325-6.579 51.575-13.602 8.603 36.692 7.904 85.793-13.592 116.496z"/></symbol><symbol viewBox="0 0 60.066 60.066" id="ico--fireprotect" xmlns="http://www.w3.org/2000/svg"><g><path d="M55.263 35.668l-3.327-3.791a1 1 0 1 0-1.746.551 32.1 32.1 0 0 1-.292 2.038c-.569-2.506-1.532-5.002-2.872-7.474V9.001a1 1 0 0 0-1-1C31.398 8.001 24.857.436 24.795.36c-.189-.227-.442-.378-.77-.358-.295 0-.575.131-.766.356-.064.077-6.605 7.643-21.233 7.643a1 1 0 0 0-1 1v19.085c0 10.433 4.69 20.348 12.546 26.521 3.167 2.489 6.589 4.29 10.17 5.353a1.016 1.016 0 0 0 .568 0c3.293-.977 6.448-2.586 9.398-4.772a14.553 14.553 0 0 0 10.769 4.879h.092c4.116 0 8.049-1.749 10.803-4.808 4.932-5.479 4.885-13.901-.109-19.591zM24.026 57.956a27.182 27.182 0 0 1-5.269-2.283.993.993 0 0 0 .269-.672 1 1 0 0 0-1-1 .991.991 0 0 0-.933.67 31.418 31.418 0 0 1-2.284-1.636c-.042-.033-.081-.07-.123-.103.107.039.22.069.341.069a1 1 0 1 0-1-1c0 .194.07.365.166.518a29.784 29.784 0 0 1-5.136-5.525.996.996 0 0 0-.03-1.994.998.998 0 0 0-.914.6 31.716 31.716 0 0 1-1.238-2.102.972.972 0 0 0 .152-.498.99.99 0 0 0-.897-.979 32.63 32.63 0 0 1-2.416-7.3.993.993 0 0 0-.296-1.641 33.172 33.172 0 0 1-.366-4.085A.997.997 0 0 0 3.027 27v-4a1 1 0 0 0 0-2v-4a1 1 0 0 0 0-2v-4a1 1 0 0 0 1-1c0-.021-.01-.038-.012-.058 1.46-.066 2.837-.2 4.132-.393a.972.972 0 0 0-.12.451 1 1 0 0 0 2 0 .998.998 0 0 0-.304-.715c2.867-.553 5.294-1.372 7.306-2.278A1 1 0 0 0 19.027 7a.986.986 0 0 0-.388-.772 27.268 27.268 0 0 0 2.172-1.272c.072.016.14.044.216.044a.99.99 0 0 0 .974-.87 20.802 20.802 0 0 0 2.026-1.687c2.135 2.049 8.758 7.273 21 7.546V24.11a1.009 1.009 0 0 0-.456-.11h-.001c-.288 0-.562.124-.752.34l-3.249 3.701c-3.337 3.801-5.183 8.613-5.293 13.493-.203-.46-.397-.955-.583-1.461a21.137 21.137 0 0 1-.628-1.972.998.998 0 0 0-1.11-.737.998.998 0 0 0-.705.458c-.02.031-.035.064-.055.096-.179.291-.348.585-.504.885-.056.108-.104.218-.157.327-.114.232-.225.464-.326.7-.048.113-.089.227-.134.34-.096.242-.187.484-.269.729-.034.103-.065.206-.097.309a13.99 13.99 0 0 0-.46 1.953c-.01.059-.02.117-.028.176-.051.341-.091.683-.118 1.026l-.006.063a14.638 14.638 0 0 0 .666 5.596c.023.071.05.14.073.211.09.265.185.528.291.788.054.134.113.265.171.397a13.659 13.659 0 0 0 .75 1.471c.122.209.249.415.381.618.022.034.041.069.063.102-2.667 1.973-5.51 3.433-8.465 4.347zm29.859-4.035a12.564 12.564 0 0 1-9.396 4.146 12.547 12.547 0 0 1-9.345-4.268c-.166-.19-.323-.385-.476-.583l-.007-.014a12.312 12.312 0 0 1-.904-1.342l-.023-.038c-.25-.432-.467-.878-.662-1.331l-.083-.192a12.37 12.37 0 0 1-.438-1.27 11.866 11.866 0 0 1-.398-1.946c-.05-.4-.083-.802-.094-1.206-.004-.137-.002-.273-.002-.41.002-.41.018-.82.06-1.229.012-.116.03-.232.045-.348.056-.432.127-.862.229-1.288.018-.077.042-.152.062-.228.116-.45.252-.896.419-1.334l.017-.049a29.348 29.348 0 0 0 2.86 5.624c.102.154.18.268.195.29a1 1 0 1 0 1.795-.783l-.038-.175a18.253 18.253 0 0 1-.427-4.393c.104-4.405 1.778-8.752 4.796-12.191l2.427-2.766c.042.071.082.145.124.216 2.584 4.348 3.901 8.765 3.901 13.144a1 1 0 0 0 1.937.347c.042-.111.855-2.327 1.405-5.475l1.894 2.156c4.328 4.931 4.381 12.21.127 16.936z"/><circle cx="24.026" cy="7.001" r="1"/><circle cx="6.026" cy="13.001" r="1"/><circle cx="12.026" cy="13.001" r="1"/><circle cx="15.026" cy="10.001" r="1"/><circle cx="18.026" cy="13.001" r="1"/><circle cx="21.026" cy="10.001" r="1"/><circle cx="24.026" cy="13.001" r="1"/><circle cx="6.026" cy="19.001" r="1"/><circle cx="9.026" cy="16.001" r="1"/><circle cx="12.026" cy="19.001" r="1"/><circle cx="15.026" cy="16.001" r="1"/><circle cx="18.026" cy="19.001" r="1"/><circle cx="21.026" cy="16.001" r="1"/><circle cx="24.026" cy="19.001" r="1"/><circle cx="6.026" cy="25.001" r="1"/><circle cx="9.026" cy="22.001" r="1"/><circle cx="12.026" cy="25.001" r="1"/><circle cx="15.026" cy="22.001" r="1"/><circle cx="18.026" cy="25.001" r="1"/><circle cx="21.026" cy="22.001" r="1"/><circle cx="24.026" cy="25.001" r="1"/><circle cx="6.026" cy="31.001" r="1"/><circle cx="9.026" cy="28.001" r="1"/><circle cx="12.026" cy="31.001" r="1"/><circle cx="15.026" cy="28.001" r="1"/><circle cx="18.026" cy="31.001" r="1"/><circle cx="21.026" cy="28.001" r="1"/><circle cx="24.026" cy="31.001" r="1"/><circle cx="6.026" cy="37.001" r="1"/><circle cx="9.026" cy="34.001" r="1"/><circle cx="12.026" cy="37.001" r="1"/><circle cx="15.026" cy="34.001" r="1"/><circle cx="18.026" cy="37.001" r="1"/><circle cx="21.026" cy="34.001" r="1"/><circle cx="24.026" cy="37.001" r="1"/><circle cx="9.026" cy="40.001" r="1"/><circle cx="12.026" cy="43.001" r="1"/><circle cx="15.026" cy="40.001" r="1"/><circle cx="18.026" cy="43.001" r="1"/><circle cx="21.026" cy="40.001" r="1"/><circle cx="24.026" cy="43.001" r="1"/><circle cx="12.026" cy="49.001" r="1"/><circle cx="15.026" cy="46.001" r="1"/><circle cx="18.026" cy="49.001" r="1"/><circle cx="21.026" cy="46.001" r="1"/><circle cx="24.026" cy="49.001" r="1"/><circle cx="21.026" cy="52.001" r="1"/><circle cx="24.026" cy="55.001" r="1"/></g></symbol><symbol viewBox="0 0 511.999 511.999" id="ico--loyalnost" xmlns="http://www.w3.org/2000/svg"><path d="M506.568 156.158L376.692 26.281c-3.524-3.524-8.183-5.446-13.196-5.438a18.448 18.448 0 0 0-13.158 5.529l-6.14 6.225c-7.669 7.775-17.845 12.906-28.655 14.45l-9.411 1.344c-11.457 1.637-22.393 6.327-31.508 13.416l-27.503-27.501c-6.941-6.941-16.169-10.763-25.986-10.763H187.01c-3.67 0-7.121-1.429-9.716-4.024-5.34-5.34-12.439-8.281-19.991-8.281s-14.651 2.941-19.991 8.281L8.785 148.048c-11.713 11.713-11.713 30.772 0 42.486a13.82 13.82 0 0 1 3.885 7.772l4.5 31.498a36.984 36.984 0 0 0 10.394 20.789l28.775 28.775-4.556 4.556c-16.456 16.456-16.456 43.23 0 59.686 7.971 7.971 18.57 12.362 29.843 12.362 2.185 0 4.345-.165 6.465-.489-1.967 12.839 1.983 26.418 11.851 36.286 9.868 9.868 23.446 13.817 36.286 11.851a42.782 42.782 0 0 0-.489 6.465c0 11.273 4.391 21.871 12.362 29.842s18.57 12.362 29.843 12.362c2.185 0 4.345-.165 6.465-.489-1.967 12.839 1.983 26.418 11.851 36.286 8.228 8.228 19.035 12.341 29.843 12.341 9.802 0 19.597-3.396 27.474-10.164 7.828 6.996 17.695 10.498 27.565 10.498 10.602 0 21.203-4.035 29.273-12.107l.001-.001 1.138-1.139c9.621-9.62 13.504-22.836 11.657-35.363 2.018.298 4.054.45 6.09.45 10.602 0 21.202-4.035 29.272-12.104l1.141-1.141c9.621-9.621 13.504-22.838 11.657-35.364 2.018.298 4.054.45 6.09.45 10.602 0 21.202-4.035 29.273-12.106l1.139-1.139c9.62-9.62 13.504-22.836 11.657-35.363 2.018.298 4.054.45 6.089.45 10.601 0 21.203-4.035 29.273-12.107l.001-.001 1.138-1.139c15.552-15.552 16.114-40.496 1.696-56.735l11.595-11.595c12.565-12.565 19.486-29.272 19.486-47.042v-2.36c0-16.199 6.309-31.43 17.763-42.884 7.238-7.24 7.238-19.022-.003-26.263zM226.102 484.145c-6.918 0-13.424-2.694-18.316-7.587-4.892-4.893-7.587-11.397-7.587-18.317 0-5.938 1.99-11.567 5.645-16.138a41.57 41.57 0 0 0 3.605 4.132l32.495 32.495a25.702 25.702 0 0 1-15.842 5.415zm73.922-8.157l-1.138 1.139c-9.784 9.785-25.707 9.786-35.493 0l-42.418-42.418c-9.785-9.785-9.785-25.708 0-35.493l1.139-1.139c4.893-4.893 11.32-7.339 17.747-7.339s12.853 2.446 17.746 7.339l42.418 42.418c9.786 9.786 9.786 25.707-.001 35.493zm48.162-48.16l-1.14 1.139-.001.001c-9.785 9.785-25.707 9.785-35.492 0l-42.418-42.418c-9.785-9.785-9.785-25.708 0-35.493l1.139-1.139c4.893-4.893 11.32-7.339 17.746-7.339 6.426 0 12.854 2.446 17.747 7.339l42.418 42.418c9.785 9.786 9.785 25.708.001 35.492zm48.157-48.157l-1.139 1.139c-9.785 9.785-25.707 9.785-35.492 0l-42.418-42.418c-4.741-4.74-7.351-11.043-7.351-17.746 0-6.703 2.61-13.005 7.353-17.747l1.138-1.139c4.893-4.893 11.319-7.339 17.746-7.339 6.426 0 12.854 2.446 17.746 7.339l42.418 42.419c9.784 9.785 9.784 25.706-.001 35.492zm48.157-48.158l-1.138 1.139c-9.784 9.784-25.707 9.785-35.493 0l-42.418-42.419c-9.785-9.785-9.785-25.707 0-35.492l1.139-1.139c4.893-4.893 11.32-7.339 17.747-7.339s12.853 2.446 17.746 7.339l42.418 42.418c9.785 9.785 9.785 25.707-.001 35.493zm50.603-160.682c-13.633 14.666-22.599 33.03-22.599 53.054v3.783a50.226 50.226 0 0 1-14.711 35.515l-11.537 11.537-32.646-32.646c-16.167-16.167-42.379-16.167-58.547 0l-1.139 1.139c-9.621 9.62-13.504 22.836-11.657 35.363-12.526-1.847-25.742 2.036-35.365 11.657l-.639.639c-7.342 7.349-11.993 17.08-12.561 27.453a42.003 42.003 0 0 0 .379 8.404c-12.519-1.838-25.722 2.047-35.336 11.661l-1.139 1.139c-9.621 9.621-13.504 22.837-11.657 35.364-12.526-1.848-25.742 2.035-35.364 11.657l-1.139 1.139c-10.588 10.589-14.231 25.534-10.927 39.12a8.126 8.126 0 0 0-2.263 1.589c-11.204 11.204-30.201 9.979-39.701-3.674a25.042 25.042 0 0 1-4.126-10.056c-1.465-8.582 1.233-16.938 7.196-22.9l44.719-44.719a8.15 8.15 0 0 0-.18-11.701c-3.249-3.059-8.433-2.739-11.589.417l-44.476 44.477c-10.229 10.228-26.953 10.097-37.015-.392-9.5-9.904-9.233-25.66-.002-35.814l.391-.43 44.714-44.713a8.15 8.15 0 0 0 0-11.526 8.149 8.149 0 0 0-11.526 0l-44.728 44.728c-6.009 6.001-14.444 8.691-23.092 7.15a24.889 24.889 0 0 1-9.876-4.099c-7.188-5.03-11.24-12.892-11.24-21.377 0-6.918 2.694-13.424 7.587-18.316l74.823-74.823a8.072 8.072 0 0 0 .024-11.392l-.115-.115a8.072 8.072 0 0 0-11.435-.021l-58.741 58.741-28.775-28.775a20.582 20.582 0 0 1-5.784-11.568l-4.5-31.498c-.934-6.536-4.136-12.439-8.704-17.206-5.149-5.373-5.081-13.934.208-19.221L148.567 31.318c2.187-2.187 5.077-3.622 8.167-3.765a11.9 11.9 0 0 1 8.946 3.406c5.582 5.471 12.844 8.885 20.66 8.885h34.802a20.432 20.432 0 0 1 14.453 5.989l118.484 118.484c10.246 10.246 10.518 27.287.1 37.358-10.123 9.786-26.322 9.683-36.317-.311l-80.773-80.773c-6.069-6.069-15.907-6.069-21.976 0l-61.52 61.52a8.067 8.067 0 0 0 0 11.411l.115.115a8.067 8.067 0 0 0 11.411 0l60.981-60.981 79.642 79.643c16.52 16.52 44.049 17.022 60.467.401 8.049-8.148 12.386-18.997 12.164-30.494-.215-11.135-5.039-21.688-12.915-29.562l-79.193-79.193c6.541-4.677 14.188-7.781 22.17-8.921l9.411-1.344a66.537 66.537 0 0 0 37.957-19.141l6.139-6.224a2.227 2.227 0 0 1 1.608-.676 2.195 2.195 0 0 1 1.613.664L495.04 167.686c.549.55.665 1.177.665 1.605a2.215 2.215 0 0 1-.602 1.54z"/></symbol><symbol viewBox="0 0 493.195 493.195" id="ico--no-noise" xmlns="http://www.w3.org/2000/svg"><g><path d="M288.046 383.219c-14.468 4.309-28.237 6.734-41.024 7.254-.141-.006-.285-.02-.426-.025-.141.006-.283.021-.424.025-12.787-.52-26.56-2.945-41.023-7.254a8.325 8.325 0 0 0-10.358 5.604 8.328 8.328 0 0 0 5.604 10.359c16.039 4.777 31.411 7.445 45.778 7.965.141-.004.283-.018.424-.023.141.006.285.02.426.023 14.367-.52 29.739-3.188 45.776-7.965a8.324 8.324 0 0 0 5.604-10.359c-1.314-4.409-5.949-6.919-10.357-5.604z"/><path d="M455.462 183.165c-12.004-4.001-32.394.716-32.035.669-2.182-37.915-12.24-91.048-49.207-132.196C343.442 17.379 300.505.005 246.596 0c-53.906.005-96.844 17.378-127.625 51.637-36.966 41.148-47.023 94.282-49.205 132.196.357.047-20.031-4.67-32.035-.669-41.9 13.967-36.491 161.87.512 184.874 29.338 18.236 57.007 7 68.518-8.459 2.205 33.959 23.651 56.984 39.542 74.033 7.762 8.328 14.465 15.518 17.24 21.799 6.708 15.176 19.498 25.918 38.017 31.926 12.149 3.943 26.822 5.859 44.859 5.859.061 0 .119-.006.178-.008.061.002.119.008.178.008 18.038 0 32.711-1.916 44.862-5.859 18.516-6.006 31.307-16.75 38.016-31.926 2.773-6.281 9.478-13.471 17.238-21.799 15.894-17.049 37.338-40.074 39.543-74.033 11.512 15.459 39.183 26.695 68.521 8.459 37.001-23.003 42.409-170.907.507-184.873zm-85.486 170.687c0 30.569-18.738 50.67-35.267 68.404-8.789 9.428-16.379 17.572-20.291 26.42-8.289 18.75-30.414 27.865-67.643 27.865-.059 0-.117.006-.178.008-.059-.002-.117-.008-.178-.008-37.229 0-59.355-9.115-67.641-27.865-3.912-8.848-11.504-16.99-20.292-26.42-16.531-17.734-35.27-37.835-35.27-68.404 0-10.281-2.729-146.685-2.729-181.696 0-25.932 9.978-64.192 33.164-90.001 21.344-23.757 53.042-32.94 92.944-32.944 39.903.004 71.604 9.187 92.944 32.944 23.188 25.81 33.166 64.07 33.166 90.001.001 35.011-2.729 171.414-2.729 181.696z"/><path d="M275.88 274.867c6.166 5.762 56.856 3.201 67.818-5.762 18.973-15.51-20.55-25.605-45.897-26.246-25.348-.638-28.085 26.246-21.921 32.008zM217.314 274.867c6.164-5.762 3.427-32.646-21.923-32.006-25.346.64-64.866 10.735-45.896 26.247 10.96 8.96 61.654 11.521 67.819 5.759z"/></g></symbol><symbol viewBox="0 0 488.7 488.7" id="ico--original" xmlns="http://www.w3.org/2000/svg"><path d="M244.3 100C164.7 100 100 164.7 100 244.3c0 79.5 64.7 144.3 144.3 144.3s144.3-64.8 144.3-144.3c0-79.6-64.7-144.3-144.3-144.3zm0 264.1c-66 0-119.8-53.7-119.8-119.8 0-66 53.7-119.8 119.8-119.8s119.8 53.8 119.8 119.8-53.8 119.8-119.8 119.8z"/><path d="M467.2 252.1c-4.1-5.6-4.2-13.3-.1-19l8.5-12.1c6.7-9.5 9.1-21.5 6.4-32.9s-10.1-21.1-20.4-26.6l-13-7c-6.2-3.3-9.5-10.1-8.4-17l2.5-14.6c1.9-11.5-1.2-23.3-8.5-32.4-7.4-9.1-18.3-14.6-29.9-15.1l-14.8-.6c-7-.3-13-5-14.9-11.7L370.3 49c-5-17.3-21.1-29.4-39.2-29.4-5.5 0-11 1.1-16.1 3.3l-13.6 5.8c-6.3 2.7-14 1-18.5-4.1l-9.9-11C265.3 5 254.2 0 242.7 0c-11.8 0-23 5.1-30.8 14l-9.6 11.2c-4.5 5.2-12.1 7-18.5 4.4L170.1 24c-5-2-10.2-3.1-15.5-3.1-18.3 0-34.5 12.3-39.3 30l-3.9 14.3c-1.8 6.7-7.8 11.5-14.8 11.9l-14.7.9c-11.6.6-22.5 6.3-29.7 15.5s-10.1 21.1-8 32.5l2.7 14.5c1.3 6.9-2 13.8-8.1 17.2l-12.9 7.2c-10.2 5.7-17.5 15.5-20 26.9s0 23.4 6.9 32.8l8.7 11.9c4.1 5.6 4.2 13.3.1 19l-8.5 12.1c-6.7 9.5-9.1 21.5-6.4 32.9s10.1 21.1 20.4 26.6l13 7c6.2 3.3 9.5 10.1 8.4 17L46 365.7c-1.9 11.5 1.2 23.3 8.5 32.4 7.4 9.1 18.3 14.6 29.9 15.1l14.8.6c7 .3 13 5 14.9 11.7l4.1 14.2c5 17.3 21.1 29.4 39.2 29.4 5.5 0 11-1.1 16.1-3.3l13.6-5.8c6.3-2.7 14-1 18.5 4.1l9.9 11c7.7 8.6 18.8 13.6 30.3 13.6 11.8 0 23-5.1 30.8-14l9.7-11.2c4.5-5.2 12.1-7 18.5-4.4l13.7 5.6c5 2 10.2 3.1 15.5 3.1 18.3 0 34.5-12.3 39.3-30l3.9-14.3c1.8-6.7 7.8-11.5 14.8-11.9l14.8-.9c11.7-.7 22.5-6.3 29.7-15.5s10.1-21 8-32.5l-2.7-14.5c-1.3-6.9 2-13.8 8.1-17.2l12.9-7.2c10.2-5.7 17.5-15.5 20-26.9s0-23.4-6.9-32.8l-8.7-12zm-8.3 39.5c-1 4.6-3.9 8.4-8 10.7l-12.9 7.2c-15.3 8.5-23.5 25.8-20.3 43l2.7 14.5c.9 4.7-.3 9.3-3.2 13-2.9 3.7-7.1 5.9-11.9 6.2l-14.7.9c-17.5 1-32.4 13-37 29.9l-3.9 14.2c-1.9 7.1-8.4 12-15.7 12-2.1 0-4.2-.4-6.2-1.2l-13.7-5.6c-5-2-10.2-3.1-15.5-3.1-11.8 0-23 5.1-30.8 14l-9.7 11.1c-3.1 3.6-7.5 5.6-12.3 5.6-4.7 0-9-1.9-12.1-5.4l-9.9-11C216.1 439 205 434 193.4 434c-5.6 0-11 1.1-16.1 3.3l-13.6 5.8c-2.1.9-4.2 1.3-6.4 1.3-7.2 0-13.6-4.8-15.6-11.7l-4.1-14.2a40.86 40.86 0 0 0-37.4-29.4l-14.8-.6c-4.7-.2-9-2.3-11.9-6-3-3.7-4.2-8.3-3.4-12.9l2.5-14.6c2.9-17.3-5.5-34.4-21-42.7l-13-7c-4.2-2.2-7.1-6-8.2-10.6-1.1-4.6-.2-9.3 2.6-13.1l8.5-12.1c10.1-14.3 10-33.4-.4-47.6L32.4 210c-2.8-3.8-3.8-8.5-2.7-13.1 1-4.6 3.9-8.4 8-10.7l12.9-7.2c15.3-8.5 23.5-25.8 20.3-43l-2.6-14.4c-.9-4.7.3-9.3 3.2-13 2.9-3.7 7.1-5.9 11.9-6.2l14.7-.9c17.5-1 32.3-13 37-29.9l3.9-14.3c1.9-7.1 8.4-12 15.7-12 2.1 0 4.2.4 6.2 1.2l13.7 5.6c5 2 10.2 3.1 15.5 3.1 11.8 0 23-5.1 30.8-14l9.7-11.1c3.1-3.6 7.5-5.6 12.3-5.6 4.7 0 9 1.9 12.1 5.4l9.9 11c7.7 8.6 18.8 13.6 30.4 13.6 5.6 0 11-1.1 16.1-3.3l13.6-5.8c2.1-.9 4.2-1.3 6.4-1.3 7.2 0 13.6 4.8 15.6 11.7l4.1 14.2a40.86 40.86 0 0 0 37.4 29.4l14.8.6c4.7.2 9 2.3 12 6s4.2 8.3 3.4 12.9l-2.5 14.6c-2.9 17.3 5.5 34.4 21 42.7l13 7c4.2 2.2 7.1 6 8.2 10.6s.2 9.3-2.5 13.1l-8.5 12.1c-10.1 14.3-10 33.4.4 47.6l8.7 11.9c2.4 3.8 3.4 8.5 2.4 13.1z"/><path d="M279.8 204.6l-53.6 53.3-17.4-17.5c-4.8-4.8-12.5-4.8-17.3 0-4.8 4.8-4.8 12.5-.1 17.3l26.1 26.2c2.3 2.3 5.4 3.6 8.7 3.6 3.2 0 6.3-1.3 8.6-3.6l62.3-61.9c4.8-4.8 4.8-12.5.1-17.3-4.8-4.8-12.6-4.8-17.4-.1z"/></symbol><symbol viewBox="0 0 21.41 21.41" id="ico--production" xmlns="http://www.w3.org/2000/svg"><g><path d="M4.501 9.174l2.621-.926V2.305H4.501zM11.685 9.174l2.623-.926V2.305h-2.623zM1.299 21.41h18.813v-6.4H1.299v6.4zm9.01-5.414h2.018v3.229h-2.018v-3.229zm-3.567 0h2.019v3.229H6.742v-3.229zm-3.699 0H5.06v3.229H3.043v-3.229z"/><path d="M15.67 11.221l-.515-2.614-6.54 2.614-.783-2.614-6.533 2.614v2.787h18.812v-2.787zM3.316 1.879c.329-.062.583-.247.784-.449.209-.205.369-.41.608-.533.226-.127.514-.163.7-.126.178.031.292.108.424.311.124.194.214.441.324.7h.053c.094-.278.098-.574.003-.873a.93.93 0 0 0-.28-.423.708.708 0 0 0-.523-.163c-.36.044-.571.271-.795.427-.221.16-.45.334-.682.438a2.145 2.145 0 0 1-.685.187.812.812 0 0 1-.539-.188C2.369.935 2.098.47 1.813 0L1.76.01c-.036.564.1 1.166.588 1.623.248.222.642.323.968.246zM11.435 1.925c.248-.051.424-.195.563-.354.135-.152.246-.303.41-.382a.657.657 0 0 1 .472-.042c.093.034.137.047.237.174.09.119.168.283.275.46h.054a.876.876 0 0 0 .051-.633.682.682 0 0 0-.207-.324.531.531 0 0 0-.408-.125c-.275.043-.413.229-.567.343-.153.12-.317.227-.488.29a1.737 1.737 0 0 1-.458.089.54.54 0 0 1-.31-.121c-.213-.145-.422-.446-.67-.759l-.053.011c-.075.406 0 .844.361 1.194a.844.844 0 0 0 .738.179z"/></g></symbol><symbol viewBox="0 0 958.752 958.752" id="ico--puzzle" xmlns="http://www.w3.org/2000/svg"><g><path d="M449.253 958.752v-126.18a125.442 125.442 0 0 1-52.273 11.438c-17.053 0-33.599-3.375-49.179-10.03-15.033-6.423-28.497-15.601-40.015-27.279-23.725-24.055-36.533-55.922-36.065-89.728.453-32.706 13.529-63.528 36.821-86.788 23.291-23.261 54.13-36.296 86.842-36.707a125.474 125.474 0 0 1 53.871 11.427l.122-125.12H299.506c3.631-6.34 8.994-14.236 15.154-23.226 11.912-17.385 20.783-37.496 20.497-60.273-.646-51.367-42.547-93.327-93.914-94.038a101.37 101.37 0 0 0-1.35-.009c-52.62-.004-95.271 42.652-95.271 95.271 0 22.269 8.737 41.944 20.445 58.973 5.693 8.28 11.58 16.957 15.213 23.302H40.411c-22.091 0-40 17.909-40 40V918.75c0 22.092 17.909 40 40 40l408.842.002z"/><path d="M832.692 508.965a125.458 125.458 0 0 1 11.438 52.273c0 33.463-13.029 64.922-36.688 88.582-23.66 23.66-55.119 36.688-88.582 36.688-.583 0-1.177-.004-1.767-.012-32.707-.453-63.527-13.529-86.789-36.82-23.26-23.291-36.296-54.131-36.707-86.838a125.458 125.458 0 0 1 11.423-53.875H479.235l.018 150.16c-5.298-3.033-15.108-9.637-24.136-15.863-16.723-11.537-36.252-19.793-58.14-19.793-.408 0-.813.002-1.224.008-51.367.646-93.326 42.548-94.038 93.914-.244 17.599 4.289 34.119 12.378 48.354 16.382 28.824 47.36 48.268 82.884 48.268 21.888 0 40.968-8.93 58.136-19.793 10.578-6.692 18.84-12.832 24.138-15.865v179.869H918.216c22.092 0 40-17.909 40-40V508.965H832.692z"/><path d="M918.34 0H479.375v183.766s16.088-13.928 21.23-17.577c16.507-13.723 37.721-21.979 60.863-21.979 53.066 0 95.999 43.386 95.264 96.622-.711 51.366-42.671 93.268-94.038 93.913-.408.005-.818.008-1.227.008-23.145 0-44.356-8.255-60.863-21.979-5.145-3.648-21.229-17.576-21.229-17.576v183.768h179.87c-1.389 2.841-9.421 15.021-15.986 24.294-11.921 16.836-19.943 36.914-19.665 59.205.646 51.365 42.548 93.324 93.914 94.037.448.006.902.01 1.352.01 24.636 0 47.087-9.352 63.999-24.694 19.21-17.431 31.271-42.595 31.271-70.578 0-21.832-8.228-41.308-19.7-58.017-7.307-10.643-12.829-18.817-15.786-23.966l-.171-.292H958.341V40c-.001-22.091-17.909-40-40.001-40z"/></g></symbol><symbol viewBox="0 0 47.001 47.001" id="ico--time" xmlns="http://www.w3.org/2000/svg"><g><path d="M22.432 22.429a1.067 1.067 0 1 0 2.136 0 5.321 5.321 0 0 1 1.251-3.421c1.793-2.126 3.137-4.431 3.988-6.851a1.069 1.069 0 0 0-1.007-1.423H18.199a1.069 1.069 0 0 0-1.008 1.423c.853 2.42 2.195 4.725 3.988 6.851a5.32 5.32 0 0 1 1.253 3.421zM24.568 26.71a1.068 1.068 0 0 0-2.136 0c-.001 1.542-.922 3.067-2.593 4.304-3.574 2.639-6.249 5.506-7.951 8.52a1.06 1.06 0 0 0 .009 1.062c.19.329.542.53.922.53h21.364a1.067 1.067 0 0 0 .93-1.592c-1.701-3.014-4.377-5.881-7.95-8.52-1.673-1.237-2.594-2.762-2.595-4.304z"/><path d="M42.192 42.729h-.639c-.734-8.313-5.602-14.695-9.386-19.228 3.785-4.532 8.651-10.915 9.388-19.228h.639a2.136 2.136 0 0 0 0-4.273H4.807a2.136 2.136 0 0 0 0 4.273h.639c.735 8.314 5.601 14.697 9.386 19.228-3.784 4.532-8.651 10.914-9.387 19.228h-.638a2.137 2.137 0 0 0 0 4.273H42.194a2.137 2.137 0 1 0-.002-4.273zm-32.464 0c.803-7.511 5.686-13.295 9.335-17.617l.195-.231a2.134 2.134 0 0 0 0-2.755l-.194-.23c-3.648-4.323-8.533-10.107-9.336-17.619h27.544c-.803 7.512-5.688 13.296-9.336 17.619l-.193.23a2.134 2.134 0 0 0 0 2.755l.195.231c3.648 4.322 8.531 10.106 9.334 17.617H9.728z"/></g></symbol></svg>